<?xml version="1.0" encoding="UTF-8"?>
<svg width="13px" height="26px" viewBox="0 0 13 26" version="1.1" xmlns="http://www.w3.org/2000/svg" xmlns:xlink="http://www.w3.org/1999/xlink">
    <title>low</title>
    <g id="Page-1" stroke="none" stroke-width="1" fill="none" fill-rule="evenodd">
        <g id="low" transform="translate(0.743978, 0.027710)" fill="#0E2E3A" fill-rule="nonzero">
            <path d="M9.7292,3.89168 C9.7292,1.74607 7.9831,0 5.8375,0 C3.6919,0 1.9458,1.74607 1.9458,3.89168 L1.9458,15.76389 C0.716,16.86659 0,18.44269 0,20.10699 C0,23.32679 2.6191,25.94459 5.8375,25.94459 C9.0559,25.94459 11.675,23.32679 11.675,20.10699 C11.675,18.44399 10.959,16.86529 9.7292,15.76389 L9.7292,3.89168 Z M5.8375,23.35009 C4.0499,23.35009 2.5944,21.89589 2.5944,20.10699 C2.5944,19.05369 3.1146,18.06129 3.9864,17.45029 L4.5403,17.06249 L4.5403,3.89168 C4.5403,3.17691 5.1227,2.59446 5.8375,2.59446 C6.5523,2.59446 7.1347,3.17691 7.1347,3.89168 L7.1347,17.06379 L7.6886,17.45159 C8.5604,18.05999 9.0806,19.05369 9.0806,20.10699 C9.0806,21.89589 7.6251,23.35009 5.8375,23.35009 Z" id="Shape"></path>
            <circle id="Oval" cx="5.8375" cy="20.14829" r="1.75506"></circle>
        </g>
    </g>
</svg>