<?xml version="1.0" encoding="UTF-8"?>
<svg width="30px" height="30px" viewBox="0 0 30 30" version="1.1" xmlns="http://www.w3.org/2000/svg" xmlns:xlink="http://www.w3.org/1999/xlink">
    <title>precipitation</title>
    <g id="Page-1" stroke="none" stroke-width="1" fill="none" fill-rule="evenodd">
        <g id="precipitation" fill="#0E2E3A" fill-rule="nonzero">
            <path d="M29.1177778,14.355 C27.5682778,8.16 22.3212778,3.705 16.0812778,3.0825 L16.0812778,0 L13.0812778,0 L13.0812778,3.0825 C6.84129778,3.705 1.59429778,8.16 0.0447977848,14.355 C-0.0947022152,14.913 0.0972977848,15.504 0.541297785,15.8715 C0.985297785,16.239 1.59879778,16.3215 2.12379778,16.0845 C5.65479778,14.475 9.77677778,14.73 13.0767778,16.635 L13.0767778,26.25 C13.0767778,28.3185 14.7597778,30 16.8267778,30 C18.8937778,30 20.5767778,28.3185 20.5767778,26.25 L20.5767778,25.5 L17.5767778,25.5 L17.5767778,26.25 C17.5767778,26.664 17.2407778,27 16.8267778,27 C16.4127778,27 16.0767778,26.664 16.0767778,26.25 L16.0767778,16.6425 C19.3782778,14.7315 23.5077778,14.472 27.0417778,16.0845 C27.5652778,16.323 28.1802778,16.2405 28.6242778,15.8715 C29.0682778,15.5025 29.2572778,14.913 29.1177778,14.355 Z M14.5812778,14.01 C12.3057778,12.693 9.73327778,12 7.08129778,12 C6.04629778,12 5.02329778,12.1065 4.02129778,12.318 C6.07179778,8.4915 10.0827778,6 14.5812778,6 C19.0797778,6 23.0907778,8.4915 25.1412778,12.318 C21.5757778,11.5665 17.7447778,12.1785 14.5812778,14.01 Z" id="Shape"></path>
        </g>
    </g>
</svg>