<?xml version="1.0" encoding="UTF-8"?>
<svg width="200px" height="200px" viewBox="0 0 200 200" version="1.1" xmlns="http://www.w3.org/2000/svg" xmlns:xlink="http://www.w3.org/1999/xlink">
    <title>rainy</title>
    <defs>
        <linearGradient x1="23.599553%" y1="28.1138234%" x2="77.4134706%" y2="84.3415997%" id="linearGradient-1">
            <stop stop-color="#6BD9FF" offset="0%"></stop>
            <stop stop-color="#3EC9F7" offset="100%"></stop>
        </linearGradient>
        <linearGradient x1="20.7796392%" y1="27.0874991%" x2="74.9957321%" y2="84.1946494%" id="linearGradient-2">
            <stop stop-color="#6BD9FF" offset="0%"></stop>
            <stop stop-color="#3EC9F7" offset="100%"></stop>
        </linearGradient>
        <linearGradient x1="22.4365074%" y1="26.8707722%" x2="77.7441774%" y2="83.5033894%" id="linearGradient-3">
            <stop stop-color="#6BD9FF" offset="0%"></stop>
            <stop stop-color="#3EC9F7" offset="100%"></stop>
        </linearGradient>
    </defs>
    <g id="rainy" stroke="none" stroke-width="1" fill="none" fill-rule="evenodd">
        <g transform="translate(20.000000, 0.000000)" fill-rule="nonzero">
            <g id="Group" opacity="0.0759844099" style="mix-blend-mode: multiply;" transform="translate(6.000000, 5.000000)">
                <path d="M54.8961264,0.028584051 C81.4834131,-1.29734885 134.657757,45.1103667 129.672505,75.6068508 C124.687253,112.733319 68.1898271,119.362573 41.6025403,112.733319 C11.691943,104.777484 0.0599664288,82.2364696 0.0599664288,68.9771406 C-1.60173469,47.7622508 31.6322649,1.35451695 54.8961264,0.028584051 Z" id="Path" fill="#FBFCFC" opacity="0.032258"></path>
                <path d="M54.8961264,0.0285931935 C79.8217005,-1.29733971 132.996389,43.7844246 128.011136,74.2809088 C123.025884,111.406737 68.1898271,118.036905 41.6025403,111.406737 C11.691943,104.777484 0.0599664288,80.9105276 0.0599664288,68.9771406 C-1.60173469,47.7622508 31.6322649,1.35452609 54.8961264,0.0285931935 Z" id="Path" fill="#F7F9FA" opacity="0.064516"></path>
                <path d="M54.8964701,1.35453524 C79.8220443,0.0286023361 129.673651,43.7844246 126.349767,74.2809088 C119.703146,110.08107 68.1901708,116.711237 41.6028841,110.08107 C13.3538848,103.451817 1.72202274,80.9105276 0.060321618,68.9771406 C0.060321618,47.7622508 31.6326086,2.68046814 54.8964701,1.35453524 Z" id="Path" fill="#F3F6F7" opacity="0.096774"></path>
                <path d="M53.2345284,1.35453524 C76.49839,0.0286023361 126.349767,43.7844246 123.025884,72.9549667 C118.040632,107.42882 66.5281145,114.058987 39.9409423,108.755402 C13.3536556,102.125235 1.72177067,79.5846769 1.72177067,67.6511986 C0.0600695482,47.7622508 31.6323794,2.68046814 53.2345284,1.35453524 Z" id="Path" fill="#EFF3F5" opacity="0.129"></path>
                <path d="M53.2344138,2.68046814 C76.4982754,1.35453524 124.687253,43.7844246 121.364515,72.9549667 C116.379263,106.103152 66.5279999,114.058987 41.6025403,107.42882 C13.353541,100.799567 3.3833343,79.5846769 1.72163318,67.6511986 C1.72163318,47.7622508 31.6322649,4.00643761 53.2344138,2.68046814 Z" id="Path" fill="#EBF0F2" opacity="0.1613"></path>
                <path d="M53.2344138,4.00643761 C76.4982754,2.68046814 123.025884,45.1103667 119.702,72.9549667 C114.717894,106.103152 66.5279999,112.733319 41.6025403,107.42882 C13.353541,100.799567 3.3833343,78.2587349 3.3833343,67.6511986 C1.72163318,47.7622508 31.6322649,5.33237965 53.2344138,4.00643761 Z" id="Path" fill="#E8EDF0" opacity="0.1935"></path>
                <path d="M51.5728158,4.00643761 C73.1748502,2.68047728 119.702,43.7844246 116.379263,71.6290247 C111.39401,103.451817 64.8664019,111.406737 39.9408278,104.777484 C13.3536556,98.147317 3.38340305,78.2587349 3.38340305,66.3253479 C3.38340305,49.0881928 31.6323794,5.33237965 51.5728158,4.00643761 Z" id="Path" fill="#E4EAED" opacity="0.2258"></path>
                <path d="M51.5728158,5.33237965 C73.1748502,4.00643761 118.040632,45.1103667 113.055379,71.6290247 C109.732642,102.125235 64.8664019,108.755402 39.9408278,103.451817 C13.3536556,98.147317 3.38340305,76.9327929 3.38340305,66.3253479 C3.38340305,49.0881928 31.6323794,6.65832169 51.5728158,5.33237965 Z" id="Path" fill="#E0E7EB" opacity="0.2581"></path>
                <path d="M51.573045,6.65823027 C71.5134814,5.33228823 116.379263,45.1103667 111.39401,71.6290247 C108.071273,100.799567 64.8666311,107.42882 39.9410569,102.125235 C15.0155974,96.8216492 5.04532187,76.9327929 5.04532187,66.3252565 C3.38364366,49.0881928 31.6326086,6.65823027 51.573045,6.65823027 Z" id="Path" fill="#DCE4E8" opacity="0.2903"></path>
                <path d="M49.9112178,6.65823027 C71.5133668,5.33237965 113.055379,45.1103667 109.732642,70.3030826 C104.747389,99.473899 63.2048039,106.103152 39.9409423,102.125235 C15.0154828,96.8216492 6.70691987,76.9327929 5.04520729,66.3253479 C5.04520729,49.0881928 31.632494,7.98417231 49.9112178,6.65823027 Z" id="Path" fill="#D8E1E6" opacity="0.3226"></path>
                <path d="M49.9112178,7.98417231 C69.8516542,6.65823027 109.732642,45.1103667 106.409102,70.3030826 C103.085677,98.147317 63.2048039,104.777484 39.9409423,100.799567 C15.0154828,95.4959815 6.70691987,76.9327929 5.04520729,66.3252565 C5.04520729,49.0881928 31.632494,7.98417231 49.9112178,7.98417231 Z" id="Path" fill="#D4DEE3" opacity="0.3548"></path>
                <path d="M49.9113324,7.98417231 C68.1900562,7.98417231 108.071273,45.1103667 104.747504,68.9771406 C101.424079,95.4959815 63.2049185,103.451817 39.9410569,98.147317 C15.0155974,92.8437317 6.70703445,74.2809088 6.70703445,64.9994059 C6.70703445,49.0881928 31.6326086,9.31011436 49.9113324,7.98417231 Z" id="Path" fill="#D0DBE0" opacity="0.3871"></path>
                <path d="M49.9112178,9.31011436 C66.5282291,7.98417231 104.747389,45.1103667 103.085677,68.9771406 C99.7622515,95.4959815 63.2048039,102.125235 41.6026549,98.147317 C18.3389079,94.1703137 8.36863245,74.2809088 8.36863245,64.9993145 C6.70691987,49.0881928 31.632494,10.6360564 49.9112178,9.31011436 Z" id="Path" fill="#CCD8DE" opacity="0.4194"></path>
                <path d="M48.2497344,10.6360564 C64.8667456,9.31011436 103.085906,45.1103667 99.7624807,68.9771406 C96.4390555,92.8437317 61.5433205,100.799567 39.9411715,96.8216492 C16.6773099,92.8437317 8.36886161,74.2809088 8.36886161,64.9993145 C8.36886161,49.0881928 31.6327232,10.6360564 48.2497344,10.6360564 Z" id="Path" fill="#C8D5DB" opacity="0.4516"></path>
                <path d="M48.2493907,10.6360564 C64.8664019,9.31011436 101.42385,45.1103667 98.1004244,67.6511986 C94.7771138,91.5180639 61.5429767,99.473899 39.9409423,95.4959815 C18.3387934,91.5180639 10.0302305,72.9549667 10.0302305,64.9994059 C8.36851788,49.0881928 31.6323794,11.9619984 48.2493907,10.6360564 Z" id="Path" fill="#C4D2D9" opacity="0.4839"></path>
                <path d="M48.2492761,11.9619984 C64.8662873,10.6360564 98.1003098,45.1103667 96.4385972,67.6511986 C91.453574,90.1923961 59.8811496,98.147317 39.9407132,94.1703137 C18.3386788,90.1923961 10.0301159,72.9549667 10.0301159,63.6734638 C10.0301159,49.0881928 33.2939774,11.9619984 48.2492761,11.9619984 Z" id="Path" fill="#C1CFD6" opacity="0.5161"></path>
                <path d="M46.5875635,13.2879405 C63.2045747,11.9619984 96.4385972,45.1103667 93.1152866,66.3252565 C89.7918615,88.8658141 59.8811496,95.4959815 39.9407132,92.8437317 C18.3386788,88.8658141 11.6918285,72.9549667 10.0301159,63.6733724 C10.0301159,49.0881014 33.2939774,13.2879405 46.5875635,13.2879405 Z" id="Path" fill="#BDCCD4" opacity="0.5484"></path>
                <path d="M46.5876781,13.2879405 C61.5429767,13.2879405 93.1154012,45.1103667 89.791976,66.3252565 C88.1302635,87.5401463 59.8812642,94.1703137 39.9408278,91.5180639 C18.3386788,88.8658141 11.691943,71.6290247 11.691943,63.6733724 C11.691943,50.4140434 33.294092,14.6138825 46.5876781,13.2879405 Z" id="Path" fill="#B9C9D1" opacity="0.5806"></path>
                <path d="M46.5876781,14.6138825 C59.8812642,14.6138825 91.4536886,45.1103667 88.1302635,66.3252565 C84.8068383,86.2144786 58.2195516,92.8437317 39.9408278,90.1923961 C18.3386788,87.5401463 11.691943,71.6290247 11.691943,63.6734638 C11.691943,50.4140434 33.294092,14.6138825 46.5876781,14.6138825 Z" id="Path" fill="#B5C6CF" opacity="0.6129"></path>
                <path d="M44.9259655,14.6138825 C58.2195516,14.6138825 88.1302635,45.1103667 84.8068383,64.9994059 C81.4834131,84.8883537 56.557839,91.5180639 39.9408278,88.8658141 C18.3386788,86.2144786 13.3536556,70.3030826 11.691943,62.3475218 C11.691943,50.4141348 33.294092,15.9398246 44.9259655,14.6138825 Z" id="Path" fill="#B1C3CC" opacity="0.6452"></path>
                <path d="M44.9260801,15.9398246 C58.2196661,15.9398246 86.4686654,45.1103667 83.1452403,64.9994059 C81.4835277,83.5625031 58.2196661,90.1923961 39.9409423,87.5401463 C20.0006205,86.2144786 13.3537702,70.3030826 13.3537702,62.3475218 C13.3537702,50.4141348 33.2942066,15.9398246 44.9260801,15.9398246 Z" id="Path" fill="#ADC0C9" opacity="0.6774"></path>
                <path d="M44.9259655,17.2657666 C56.557839,17.2657666 84.8068383,46.4363087 81.4834131,64.9994059 C79.8217005,82.2364696 56.557839,88.8658141 39.9408278,87.5401463 C20.0003914,84.8883537 15.0153682,68.9771406 15.0153682,62.3475218 C13.3536556,50.4140434 33.294092,17.2657666 44.9259655,17.2657666 Z" id="Path" fill="#A9BDC7" opacity="0.7097"></path>
                <path d="M44.9261947,17.2657666 C56.5580681,17.2657666 81.4836423,45.1103667 79.8219297,63.6734638 C76.4985045,79.5845855 56.5580681,87.5401463 39.9410569,86.2144786 C20.0006205,83.5624116 15.0154828,68.9771406 15.0154828,62.3475218 C15.0154828,50.4140434 33.2942066,18.5917087 44.9261947,17.2657666 Z" id="Path" fill="#A5BAC4" opacity="0.7419"></path>
                <path d="M43.2644821,18.5917087 C53.234643,18.5917087 78.1602171,46.4363087 76.4985045,63.6734638 C74.836792,78.2587349 56.5580681,86.2144786 39.9410569,84.8883537 C21.6623331,82.2364696 15.0154828,67.6511986 15.0154828,62.3475218 C15.0154828,50.4141348 33.2942066,18.5917087 43.2644821,18.5917087 Z" id="Path" fill="#A1B7C2" opacity="0.7742"></path>
                <path d="M43.2645967,19.9175593 C53.2347576,19.9175593 76.4986191,46.4363087 74.8369065,63.6733724 C73.175194,78.2586435 54.8964701,86.2144786 41.6028841,84.8883537 C21.6624477,82.2364696 16.6773099,67.6511986 16.6773099,61.0215798 C16.6773099,50.4140434 33.2943212,19.9175593 43.2645967,19.9175593 Z" id="Path" fill="#9DB4BF" opacity="0.8065"></path>
                <path d="M43.2645967,19.9175593 C53.2347576,19.9175593 74.8369065,45.1103667 73.175194,62.3475218 C71.5134814,75.6068508 56.5581827,83.5624116 41.6028841,82.2364696 C21.6624477,80.9105276 16.6773099,67.6511986 16.6773099,61.0215798 C16.6773099,50.4140434 33.2943212,19.9175593 43.2645967,19.9175593 Z" id="Path" fill="#9AB1BD" opacity="0.8387"></path>
                <path d="M41.6024258,21.2435013 C51.5727012,21.2435013 71.5131376,46.4363087 69.8514251,61.0215798 C68.1897125,74.2809088 54.8961264,82.2364696 39.9408278,80.9105276 C21.6619894,79.5846769 18.3386788,66.3252565 18.3386788,61.0215798 C18.3386788,50.4140434 33.2939774,21.2435013 41.6024258,21.2435013 Z" id="Path" fill="#96AEBA" opacity="0.871"></path>
                <path d="M41.6024258,21.2435013 C49.9109887,21.2435013 69.8514251,45.1103667 68.1897125,61.0215798 C66.5279999,72.9549667 53.2344138,80.9105276 39.9408278,79.5846769 C23.3237019,78.2587349 18.3386788,66.3252565 18.3386788,61.0215798 C18.3386788,50.4140434 33.2939774,22.5694434 41.6024258,21.2435013 Z" id="Path" fill="#92ABB8" opacity="0.9032"></path>
                <path d="M41.6024258,22.5694434 C48.2492761,22.5694434 66.5279999,46.4363087 64.8662873,59.6956377 C63.2045747,71.6290247 53.2344138,78.2587349 39.9408278,78.2587349 C23.3237019,78.2587349 18.3386788,64.9994059 18.3386788,59.6956377 C18.3386788,51.7400769 33.2939774,22.5694434 41.6024258,22.5694434 Z" id="Path" fill="#8EA8B5" opacity="0.9355"></path>
                <path d="M39.9409423,23.8953854 C46.5876781,23.8953854 63.2046893,46.4363087 61.5430913,59.6956377 C61.5430913,70.3030826 53.2345284,76.9327929 39.9409423,76.9327929 C23.3239311,76.9327929 20.0005059,64.9994059 20.0005059,59.6956377 C20.0005059,51.7399855 33.294092,23.8953854 39.9409423,23.8953854 Z" id="Path" fill="#8AA5B3" opacity="0.9677"></path>
                <path d="M39.9409423,23.8953854 C46.5876781,23.8953854 61.5430913,46.4363087 59.8813787,58.3696957 C59.8813787,68.9771406 51.5728158,75.6068508 39.9409423,75.6068508 C23.3239311,75.6068508 20.0005059,63.6734638 20.0005059,59.6956377 C20.0005059,51.7399855 33.294092,23.8953854 39.9409423,23.8953854 Z" id="Path" fill="#86A2B0"></path>
            </g>
            <path d="M68,58.4374453 C68,73.0468092 53.0731839,85 34.8292722,85 C16.5853605,85 0,73.0468092 0,58.4374453 C0,33.2031146 34.8292722,0 34.8292722,0 L36.48782,0 L36.48782,1.32812224 C44.7805592,9.29691611 68,39.8437761 68,58.4374453 Z" id="Path" fill="#C4F1FF"></path>
            <path d="M70,59.5384725 C70,74.0923217 55.1500139,86 37,86 C18.8499974,86 4,74.0923217 4,59.5384725 C4,38.369287 37,0 37,0 C37,0 70,37.0462015 70,59.5384725 Z" id="Path" fill="url(#linearGradient-1)"></path>
            <g id="Group" opacity="0.0759844099" style="mix-blend-mode: multiply;" transform="translate(6.000000, 128.000000)">
                <path d="M35.0430243,0.0449341202 C51.7301842,-1.28672193 85.104619,28.0152215 81.767164,47.9937358 C80.0984365,70.6364805 43.3866618,74.6323671 26.6995019,70.6364805 C8.34361447,66.6415124 1.66871599,50.6579663 0,43.9987676 C0,29.3468775 20.0245919,0.0449341202 35.0430243,0.0449341202 Z" id="Path" fill="#FBFCFC" opacity="0.032258"></path>
                <path d="M35.0430243,0.0449341202 C51.7301842,-1.28672193 83.4358915,28.0152215 80.0984365,46.6620797 C76.7609815,69.3048245 41.7179343,73.300711 25.0307744,69.3048245 C6.67488697,65.308938 0,50.6579663 0,42.6661932 C0,29.3468775 20.0245919,1.37659017 35.0430243,0.0449341202 Z" id="Path" fill="#F7F9FA" opacity="0.064516"></path>
                <path d="M35.0431393,0.0458525037 C50.0615717,-1.28580355 81.7672791,26.6844838 80.0985516,45.331342 C76.7610966,67.9740868 43.3867768,73.3016294 26.6996169,69.3057429 C8.34372953,65.3098563 1.66881954,50.6588846 1.66881954,42.6671116 C1.66881954,29.3477959 20.0247069,1.37750855 35.0431393,0.0458525037 Z" id="Path" fill="#F3F6F7" opacity="0.096774"></path>
                <path d="M35.0431393,1.37750855 C50.0615717,0.0458525037 81.7672791,28.0161399 78.4298241,46.6629981 C75.0923691,67.9740868 43.3867768,73.3016294 26.6996169,69.3057429 C10.012457,65.3098563 1.66881954,50.6588846 1.66881954,43.999686 C1.66881954,30.6803703 20.0247069,1.37750855 35.0431393,1.37750855 Z" id="Path" fill="#EFF3F5" opacity="0.129"></path>
                <path d="M35.0431393,1.37750855 C50.0615717,0.0458525037 80.0985516,28.0161399 76.7610966,45.331342 C73.4236416,66.6424308 43.3867768,70.6373989 26.6996169,67.9740868 C10.012457,63.9782003 3.33753553,50.6588846 1.66881954,42.6671116 C1.66881954,30.6803703 20.0247069,2.71008299 35.0431393,1.37750855 Z" id="Path" fill="#EBF0F2" opacity="0.1613"></path>
                <path d="M33.3742968,2.71008299 C48.3927292,1.37750855 76.7609815,28.0161399 75.0922541,45.331342 C71.7547991,65.3098563 41.7179343,70.6373989 26.6993868,66.6424308 C10.0122269,62.6465442 3.33738595,49.3272286 3.33738595,42.6671116 C1.66866997,30.6803703 20.0245919,2.71008299 33.3742968,2.71008299 Z" id="Path" fill="#E8EDF0" opacity="0.1935"></path>
                <path d="M33.3745269,2.71008299 C46.7243469,1.37750855 76.7612117,28.0161399 73.4237567,45.331342 C70.0864167,65.3098563 41.7181644,69.3057429 26.699732,66.6424308 C10.0125721,62.6465442 3.3376621,49.3272286 3.3376621,42.6671116 C3.3376621,30.6803703 21.6935495,2.71008299 33.3745269,2.71008299 Z" id="Path" fill="#E4EAED" opacity="0.2258"></path>
                <path d="M33.3744118,2.71008299 C46.7242318,1.37750855 75.0923691,28.0161399 71.7549141,43.999686 C68.4174591,62.6465442 40.0493218,67.9740868 25.0308894,63.9782003 C8.34372953,59.9823138 1.66881954,47.9946541 1.66881954,41.3354555 C3.33753553,30.6803703 21.6934344,4.04173904 33.3744118,2.71008299 Z" id="Path" fill="#E0E7EB" opacity="0.2581"></path>
                <path d="M33.3745269,4.04173904 C46.7242318,2.71008299 73.4237567,28.0161399 71.7550292,45.331342 C68.4175742,63.9782003 41.7181644,67.9740868 26.6996169,65.3098563 C10.012457,61.3139698 5.00627454,49.3272286 5.00627454,42.6671116 C3.33761608,30.6803703 21.6935495,4.04173904 33.3745269,4.04173904 Z" id="Path" fill="#DCE4E8" opacity="0.2903"></path>
                <path d="M33.3745269,4.04173904 C46.7242318,4.04173904 71.7550292,28.0161399 70.0863017,43.999686 C66.7488467,62.6465442 41.7181644,66.6424308 26.6996169,63.9782003 C11.6811845,61.3139698 5.00627454,47.9946541 5.00627454,41.3354555 C3.33761608,30.6803703 21.6935495,5.37339509 33.3745269,4.04173904 Z" id="Path" fill="#D8E1E6" opacity="0.3226"></path>
                <path d="M33.3741817,5.37339509 C45.0551591,5.37339509 71.754684,28.0161399 68.417229,43.999686 C66.7485015,61.3139698 40.0489766,66.6424308 26.6992717,62.6465442 C11.6808393,59.9823138 5.00592935,46.6629981 5.00592935,41.3354555 C5.00592935,30.6803703 21.6930892,5.37339509 33.3741817,5.37339509 Z" id="Path" fill="#D4DEE3" opacity="0.3548"></path>
                <path d="M31.7054542,5.37339509 C43.3864316,4.04173904 68.417229,28.0161399 66.7485015,43.999686 C65.079774,61.3139698 40.0489766,65.3098563 26.6992717,62.6465442 C11.6808393,59.9823138 6.67465685,47.9946541 5.00592935,41.3354555 C5.00592935,30.6803703 21.6930892,5.37339509 31.7054542,5.37339509 Z" id="Path" fill="#D0DBE0" opacity="0.3871"></path>
                <path d="M31.7056843,5.37339509 C43.3866618,5.37339509 66.7487316,28.0161399 65.0800041,42.6671116 C63.4112766,58.6506577 40.0492068,63.9782003 26.6995019,61.3139698 C11.6810695,58.6506577 6.67488697,46.6629981 6.67488697,41.3354555 C5.00615948,30.6803703 21.6933194,6.70505114 31.7056843,5.37339509 Z" id="Path" fill="#CCD8DE" opacity="0.4194"></path>
                <path d="M31.7055693,6.70505114 C43.3865467,6.70505114 65.0798891,28.0161399 63.4111616,42.6671116 C61.7424341,58.6506577 38.3803642,62.6465442 26.6993868,59.9823138 C11.6809544,57.3180833 6.67477191,45.331342 6.67477191,40.0037995 C6.67477191,30.6803703 21.6932043,6.70505114 31.7055693,6.70505114 Z" id="Path" fill="#C8D5DB" opacity="0.4516"></path>
                <path d="M31.7055693,6.70505114 C41.7178192,6.70505114 65.0798891,28.0161399 63.4111616,42.6671116 C60.0737066,57.3180833 38.3803642,62.6465442 26.6993868,59.9823138 C11.6809544,57.3180833 6.67477191,46.6629981 6.67477191,40.0037995 C6.67477191,30.6803703 21.6932043,6.70505114 31.7055693,6.70505114 Z" id="Path" fill="#C4D2D9" opacity="0.4839"></path>
                <path d="M31.7055693,6.70505114 C41.7178192,6.70505114 63.4111616,28.0161399 61.7424341,41.3354555 C58.4049791,57.3180833 38.3803642,61.3139698 26.6993868,58.6506577 C13.3496819,55.9864272 8.34349941,45.331342 6.67477191,40.0037995 C6.67477191,30.6803703 21.6932043,8.03762557 31.7055693,6.70505114 Z" id="Path" fill="#C1CFD6" opacity="0.5161"></path>
                <path d="M30.0368418,8.03762557 C40.0490917,8.03762557 60.0737066,28.0161399 58.4049791,41.3354555 C56.7362516,55.9864272 36.7116367,59.9823138 25.0306593,57.3180833 C11.6809544,54.6547712 6.67477191,43.999686 6.67477191,38.671225 C6.67477191,30.6803703 21.6932043,8.03762557 30.0368418,8.03762557 Z" id="Path" fill="#BDCCD4" opacity="0.5484"></path>
                <path d="M30.0369569,8.03762557 C40.0492068,8.03762557 60.0738217,28.0161399 58.4050942,41.3354555 C56.7363667,54.6547712 38.3804793,58.6506577 26.6995019,57.3180833 C13.349797,54.6547712 8.34361447,45.331342 8.34361447,40.0037995 C8.34361447,30.6803703 21.6933194,9.36928162 30.0369569,8.03762557 Z" id="Path" fill="#B9C9D1" opacity="0.5806"></path>
                <path d="M30.0369569,9.36928162 C38.3804793,9.36928162 58.4050942,29.3477959 56.7363667,41.3354555 C55.0676392,54.6547712 38.3804793,58.6506577 26.6995019,57.3180833 C13.349797,55.9864272 8.34361447,45.331342 8.34361447,40.0037995 C8.34361447,30.6803703 21.6933194,9.36928162 30.0369569,9.36928162 Z" id="Path" fill="#B5C6CF" opacity="0.6129"></path>
                <path d="M30.0370719,9.36928162 C38.3807094,9.36928162 56.7365968,28.0161399 55.0678693,41.3354555 C53.3991418,53.3231151 36.7119819,57.3180833 26.699732,55.9864272 C13.349912,54.6547712 10.012457,43.999686 10.012457,40.0037995 C8.34384459,30.6803703 21.6935495,9.36928162 30.0370719,9.36928162 Z" id="Path" fill="#B1C3CC" opacity="0.6452"></path>
                <path d="M30.0370719,9.36928162 C38.3805943,9.36928162 55.0677542,28.0161399 53.3990267,40.0037995 C51.7302992,51.9905407 36.7118668,55.9864272 26.6996169,54.6547712 C13.349797,53.3231151 10.012457,42.6671116 10.012457,38.671225 C10.012457,32.0120264 21.6934344,10.7009377 30.0370719,9.36928162 Z" id="Path" fill="#ADC0C9" opacity="0.6774"></path>
                <path d="M28.3683444,10.7009377 C36.7118668,10.7009377 53.3990267,29.3477959 51.7302992,40.0037995 C50.0615717,50.6588846 36.7118668,55.9864272 26.6996169,54.6547712 C13.349797,53.3231151 10.012457,43.999686 10.012457,38.671225 C10.012457,32.0120264 21.6934344,10.7009377 28.3683444,10.7009377 Z" id="Path" fill="#A9BDC7" opacity="0.7097"></path>
                <path d="M28.3682294,10.7009377 C35.0430243,10.7009377 51.7302992,28.0161399 50.0615717,40.0037995 C48.3928442,50.6588846 35.0430243,54.6547712 25.0307744,53.3231151 C13.349797,51.9905407 8.34361447,42.6671116 8.34361447,38.671225 C10.012342,32.0120264 21.6933194,10.7009377 28.3682294,10.7009377 Z" id="Path" fill="#A5BAC4" opacity="0.7419"></path>
                <path d="M28.3683444,12.0335121 C35.0431393,12.0335121 50.0615717,29.3477959 48.3929593,40.0037995 C46.7242318,49.3272286 35.0431393,54.6547712 25.0308894,53.3231151 C13.349797,51.9905407 10.012457,42.6671116 10.012457,38.671225 C10.012457,32.0120264 21.6934344,12.0335121 28.3683444,12.0335121 Z" id="Path" fill="#A1B7C2" opacity="0.7742"></path>
                <path d="M28.3683444,12.0335121 C35.0432544,12.0335121 50.0616868,28.0161399 48.3929593,38.671225 C46.7243469,47.9946541 36.7119819,51.9905407 26.699732,51.9905407 C15.0186395,50.6588846 11.6811845,42.6671116 11.6811845,38.671225 C11.6811845,32.0120264 21.6935495,12.0335121 28.3683444,12.0335121 Z" id="Path" fill="#9DB4BF" opacity="0.8065"></path>
                <path d="M28.3683444,12.0335121 C35.0432544,12.0335121 48.3929593,28.0161399 46.7243469,38.671225 C45.0556194,47.9946541 35.0432544,51.9905407 26.699732,50.6588846 C15.0186395,49.3272286 11.6811845,41.3354555 11.6811845,37.339569 C11.6811845,32.0120264 21.6935495,12.0335121 28.3683444,12.0335121 Z" id="Path" fill="#9AB1BD" opacity="0.8387"></path>
                <path d="M26.699732,13.3651682 C31.7057994,13.3651682 45.0556194,29.3477959 43.3868919,38.671225 C41.7181644,46.6629981 33.3745269,51.9905407 25.0310045,50.6588846 C13.349912,49.3272286 11.6811845,41.3354555 11.6811845,38.671225 C11.6811845,32.0120264 21.6935495,13.3651682 26.699732,13.3651682 Z" id="Path" fill="#96AEBA" opacity="0.871"></path>
                <path d="M26.6992717,13.3651682 C31.7054542,13.3651682 43.3864316,28.0161399 43.3864316,37.339569 C41.7177041,45.331342 35.0429092,49.3272286 26.6992717,49.3272286 C15.0182943,49.3272286 13.3495668,41.3354555 13.3495668,37.339569 C13.3495668,32.0120264 21.6930892,13.3651682 26.6992717,13.3651682 Z" id="Path" fill="#92ABB8" opacity="0.9032"></path>
                <path d="M26.6992717,14.6968242 C31.7054542,14.6968242 43.3864316,29.3477959 41.7177041,38.671225 C41.7177041,45.331342 33.3741817,50.6588846 26.6992717,50.6588846 C16.6870218,50.6588846 13.3495668,42.6671116 13.3495668,38.671225 C13.3495668,32.0120264 21.6930892,14.6968242 26.6992717,14.6968242 Z" id="Path" fill="#8EA8B5" opacity="0.9355"></path>
                <path d="M26.6992717,14.6968242 C31.7054542,14.6968242 41.7177041,29.3477959 40.0489766,37.339569 C40.0489766,43.999686 33.3741817,47.9946541 26.6992717,47.9946541 C16.6870218,47.9946541 13.3495668,40.0037995 13.3495668,37.339569 C13.3495668,32.0120264 21.6930892,14.6968242 26.6992717,14.6968242 Z" id="Path" fill="#8AA5B3" opacity="0.9677"></path>
                <path d="M26.6995019,14.6968242 C30.0369569,14.6968242 40.0492068,28.0161399 40.0492068,37.339569 C40.0492068,42.6671116 35.0431393,47.9946541 26.6995019,47.9946541 C16.6872519,47.9946541 15.0185244,40.0037995 15.0185244,37.339569 C13.349797,32.0120264 21.6933194,14.6968242 26.6995019,14.6968242 Z" id="Path" fill="#86A2B0"></path>
            </g>
            <path d="M45,161.999717 C45,171.332909 35.1599484,178 25.32001,178 C15.4799584,178 4,169.999859 4,161.999717 C4,146.000354 25.32001,126 25.32001,126 L26.9600185,126 L26.9600185,127.33397 C31.8799312,131.334041 45,150.000424 45,161.999717 Z" id="Path" fill="#C4F1FF"></path>
            <path d="M48,163.100548 C48,172.375457 37.9999512,179 28.0000172,179 C16.3332936,179 8,171.049817 8,163.100548 C8,149.850548 28.0000172,126 28.0000172,126 C28.0000172,126 48,148.524909 48,163.100548 Z" id="Path" fill="url(#linearGradient-2)"></path>
            <g id="Group" opacity="0.0759844099" style="mix-blend-mode: multiply;" transform="translate(83.000000, 76.000000)">
                <path d="M41.0197154,0.0369644648 C60.7098485,-1.28269542 100.088983,33.0286437 96.8069174,55.4627708 C93.5248514,83.1753555 50.8647819,88.4538131 31.1746488,83.1753555 C9.84472716,77.8968979 0,60.7412284 0,51.5037001 C0,35.6674175 22.9710677,1.35662435 41.0197154,0.0369644648 Z" id="Path" fill="#FBFCFC" opacity="0.032258"></path>
                <path d="M41.0197154,0.0369644648 C59.0682498,-1.28269542 98.4473847,33.0286437 95.1664501,55.4627708 C91.8843841,81.8550587 50.8647819,87.1344261 31.1746488,83.1753555 C9.84472716,77.8968979 1.64080672,60.7412284 0,51.5037001 C0,35.6674175 22.9710677,1.35662435 41.0197154,0.0369644648 Z" id="Path" fill="#F7F9FA" opacity="0.064516"></path>
                <path d="M41.0197154,1.35662435 C59.0682498,0.0369644648 96.8069174,33.0286437 93.5248514,55.4627708 C90.2439168,81.8550587 50.8647819,87.1344261 31.1746488,81.8550587 C9.84438775,76.5766011 1.64035417,59.4209315 1.64035417,51.5037001 C-0.000452542706,35.6674175 22.9707283,2.67628424 41.0197154,1.35662435 Z" id="Path" fill="#F3F6F7" opacity="0.096774"></path>
                <path d="M39.379248,1.35662435 C57.4277825,0.0369644648 93.5248514,33.0286437 90.2439168,54.142474 C86.9618508,79.2162848 49.2243146,84.4947424 29.5342946,80.5356717 C9.84472716,75.2572142 1.64080672,59.4209315 0,50.1834033 C1.64080672,35.6674175 22.9710677,2.67628424 39.379248,1.35662435 Z" id="Path" fill="#EFF3F5" opacity="0.129"></path>
                <path d="M39.379248,2.67628424 C55.7861838,1.35662435 91.8843841,33.0286437 88.6023182,54.142474 C85.3213835,79.2162848 49.2231833,84.4947424 29.5339552,79.2162848 C9.84438775,73.9378273 1.64035417,58.1015446 1.64035417,50.1834033 C1.64035417,35.6674175 22.9707283,2.67628424 39.379248,2.67628424 Z" id="Path" fill="#EBF0F2" opacity="0.1613"></path>
                <path d="M39.379248,2.67628424 C55.7873152,1.35662435 90.2439168,33.0286437 86.9618508,54.142474 C83.6809162,77.8968979 49.2231833,83.1753555 31.1746488,79.2162848 C11.4853076,75.2572142 3.28138716,58.1015446 3.28138716,50.1834033 C1.64058044,35.6674175 22.9709546,3.99594413 39.379248,2.67628424 Z" id="Path" fill="#E8EDF0" opacity="0.1935"></path>
                <path d="M39.379248,3.99594413 C55.7861838,2.67628424 88.6023182,33.0286437 86.9618508,54.142474 C82.0393176,76.5766011 49.2231833,81.8550587 31.1746488,77.8968979 C11.4851945,73.9378273 4.92208074,58.1015446 3.28127402,50.1834033 C3.28127402,35.6674175 24.6115351,3.99594413 39.379248,3.99594413 Z" id="Path" fill="#E4EAED" opacity="0.2258"></path>
                <path d="M39.379248,3.99594413 C55.7873152,2.67628424 88.6034495,33.0286437 85.3213835,52.823087 C82.0393176,75.2572142 49.2243146,80.5356717 31.1746488,76.5766011 C11.4855339,72.6175304 4.92230701,56.7821577 4.92230701,48.8640164 C3.2815003,36.9868044 24.6118745,5.31560402 39.379248,3.99594413 Z" id="Path" fill="#E0E7EB" opacity="0.2581"></path>
                <path d="M37.7376494,5.31560402 C54.1457165,3.99594413 85.3213835,33.0286437 82.0393176,52.823087 C78.7583829,75.2572142 47.5827159,80.5356717 29.5339552,76.5766011 C11.4851945,72.6175304 3.28127402,58.1015446 3.28127402,50.1834033 C3.28127402,36.9868044 24.6115351,5.31560402 37.7376494,5.31560402 Z" id="Path" fill="#DCE4E8" opacity="0.2903"></path>
                <path d="M37.7376494,5.31560402 C52.5052492,3.99594413 83.6797849,33.0286437 80.3988503,52.823087 C77.1167843,73.9378273 47.5827159,79.2162848 29.5339552,75.2572142 C11.4851945,71.2981435 4.92208074,56.7821577 3.28127402,48.8640164 C4.92208074,36.9868044 24.6115351,6.63526391 37.7376494,5.31560402 Z" id="Path" fill="#D8E1E6" opacity="0.3226"></path>
                <path d="M37.7376494,6.63526391 C52.5052492,5.31560402 82.0393176,33.0286437 78.7583829,51.5037001 C75.476317,72.6175304 45.9422486,77.8968979 29.5340683,73.9378273 C13.1261143,71.2981435 4.92208074,56.7821577 4.92208074,48.8640164 C4.92208074,36.9868044 24.6116482,6.63526391 37.7376494,6.63526391 Z" id="Path" fill="#D4DEE3" opacity="0.3548"></path>
                <path d="M37.7376494,6.63526391 C50.8636506,5.31560402 80.3988503,33.0286437 78.7572516,51.5037001 C75.476317,71.2981435 47.5827159,76.5766011 31.1746488,73.9378273 C13.125888,69.9787566 6.56266118,55.4627708 6.56266118,48.8640164 C4.92185447,36.9868044 24.6114219,7.9549238 37.7376494,6.63526391 Z" id="Path" fill="#D0DBE0" opacity="0.3871"></path>
                <path d="M36.0971821,7.9549238 C49.2243146,7.9549238 77.1167843,34.3480306 75.476317,51.5037001 C72.1953824,71.2981435 45.9422486,76.5766011 29.5341815,72.6175304 C13.1262275,69.9787566 6.56300059,55.4627708 6.56300059,48.8640164 C6.56300059,36.9868044 24.6117613,7.9549238 36.0971821,7.9549238 Z" id="Path" fill="#CCD8DE" opacity="0.4194"></path>
                <path d="M36.0971821,7.9549238 C49.2243146,7.9549238 75.476317,34.3480306 73.8358497,51.5037001 C70.5537837,69.9787566 45.9422486,75.2572142 29.5341815,72.6175304 C13.1262275,69.9787566 6.56300059,55.4627708 6.56300059,48.8640164 C6.56300059,36.9868044 24.6117613,7.9549238 36.0971821,7.9549238 Z" id="Path" fill="#C8D5DB" opacity="0.4516"></path>
                <path d="M36.0971821,7.9549238 C47.5827159,7.9549238 75.476317,33.0286437 72.1953824,50.1834033 C70.5537837,68.6584598 45.9422486,73.9378273 29.5341815,71.2981435 C13.1262275,68.6584598 6.56300059,55.4627708 6.56300059,48.8640164 C6.56300059,36.9868044 24.6117613,9.27458369 36.0971821,7.9549238 Z" id="Path" fill="#C4D2D9" opacity="0.4839"></path>
                <path d="M36.0971821,9.27458369 C47.5827159,9.27458369 73.8358497,34.3480306 70.5537837,50.1834033 C68.9133164,67.3390729 44.3017813,72.6175304 29.5341815,69.9787566 C13.1262275,67.3390729 6.56300059,54.142474 6.56300059,47.5446295 C8.20380731,36.9868044 24.6117613,9.27458369 36.0971821,9.27458369 Z" id="Path" fill="#C1CFD6" opacity="0.5161"></path>
                <path d="M34.4567148,9.27458369 C45.9422486,9.27458369 70.5537837,33.0286437 68.9133164,48.8640164 C67.2728491,64.700299 44.30065,71.2981435 31.1746488,68.6584598 C14.766921,66.0196859 9.84450089,52.823087 9.84450089,47.5446295 C8.20369417,36.9868044 24.6116482,10.5942436 34.4567148,9.27458369 Z" id="Path" fill="#BDCCD4" opacity="0.5484"></path>
                <path d="M34.4567148,10.5942436 C45.9422486,10.5942436 68.9133164,34.3480306 67.2728491,50.1834033 C65.6323818,64.700299 44.3017813,69.9787566 29.5342946,68.6584598 C13.1263406,66.0196859 8.20392044,54.142474 8.20392044,47.5446295 C8.20392044,36.9868044 24.6118745,10.5942436 34.4567148,10.5942436 Z" id="Path" fill="#B9C9D1" opacity="0.5806"></path>
                <path d="M34.4567148,10.5942436 C44.30065,10.5942436 67.2717177,33.0286437 65.6312504,48.8640164 C63.9907831,63.3800022 44.30065,68.6584598 31.1746488,67.3390729 C14.7666948,64.700299 9.84427462,52.823087 9.84427462,47.5446295 C9.84427462,36.9868044 24.6115351,11.9139035 34.4567148,10.5942436 Z" id="Path" fill="#B5C6CF" opacity="0.6129"></path>
                <path d="M34.4567148,11.9138125 C44.3017813,11.9138125 65.6312504,34.3480306 63.9907831,48.8640164 C62.3503158,63.3800022 42.6601827,68.6584598 31.1746488,67.3390729 C16.4078409,64.700299 11.4854207,52.823087 11.4854207,47.5446295 C9.84461402,36.9868044 24.6117613,11.9138125 34.4567148,11.9138125 Z" id="Path" fill="#B1C3CC" opacity="0.6452"></path>
                <path d="M34.4567148,11.9138125 C44.3017813,11.9138125 63.9907831,34.3480306 62.3503158,47.5446295 C60.7098485,60.7412284 42.6601827,66.0196859 31.1746488,64.700299 C16.4078409,63.3800022 11.4854207,51.5037001 11.4854207,46.2252426 C9.84461402,36.9868044 24.6117613,11.9138125 34.4567148,11.9138125 Z" id="Path" fill="#ADC0C9" opacity="0.6774"></path>
                <path d="M32.8151161,13.2334724 C41.0197154,13.2334724 60.7087171,34.3480306 59.0682498,48.8640164 C57.4277825,62.0606153 41.0197154,67.3390729 29.5338421,66.0196859 C14.7666948,64.700299 9.84427462,52.823087 9.84427462,47.5446295 C11.4850813,36.9868044 24.6115351,13.2334724 32.8151161,13.2334724 Z" id="Path" fill="#A9BDC7" opacity="0.7097"></path>
                <path d="M32.8151161,13.2334724 C41.0197154,13.2334724 60.7087171,34.3480306 59.0682498,47.5446295 C57.4277825,59.4209315 42.6601827,64.700299 31.1746488,63.3800022 C16.4076146,62.0606153 11.4851945,51.5037001 11.4851945,46.2252426 C11.4851945,38.3071012 24.6116482,13.2334724 32.8151161,13.2334724 Z" id="Path" fill="#A5BAC4" opacity="0.7419"></path>
                <path d="M32.8151161,14.5531323 C41.0197154,14.5531323 59.0682498,34.3480306 57.4277825,47.5446295 C55.7861838,59.4209315 42.6601827,64.700299 31.1746488,63.3800022 C16.4076146,62.0606153 11.4851945,51.5037001 11.4851945,46.2252426 C11.4851945,38.3071012 24.6116482,14.5531323 32.8151161,14.5531323 Z" id="Path" fill="#A1B7C2" opacity="0.7742"></path>
                <path d="M32.8151161,14.5531323 C39.379248,14.5531323 57.4277825,34.3480306 55.7873152,46.2252426 C54.1457165,56.7821577 41.0197154,62.0606153 31.1746488,62.0606153 C16.4077278,60.7412284 13.1261143,50.1834033 13.1261143,46.2252426 C13.1261143,38.3071012 24.6116482,14.5531323 32.8151161,14.5531323 Z" id="Path" fill="#9DB4BF" opacity="0.8065"></path>
                <path d="M31.1746488,15.8729741 C37.7376494,15.8729741 54.1457165,34.3480306 52.5052492,46.2252426 C50.8647819,56.7821577 39.379248,62.0606153 29.5340683,60.7412284 C16.4077278,59.4209315 13.1261143,50.1834033 13.1261143,44.9049457 C13.1261143,38.3071012 24.6116482,15.8729741 31.1746488,15.8729741 Z" id="Path" fill="#9AB1BD" opacity="0.8387"></path>
                <path d="M31.1746488,15.8729741 C37.7376494,15.8729741 52.5052492,34.3480306 50.8647819,46.2252426 C49.2231833,55.4627708 39.379248,60.7412284 29.5340683,60.7412284 C16.4077278,59.4209315 13.1261143,50.1834033 13.1261143,46.2252426 C13.1261143,38.3071012 24.6116482,15.8729741 31.1746488,15.8729741 Z" id="Path" fill="#96AEBA" opacity="0.871"></path>
                <path d="M31.1746488,15.8729741 C37.7376494,15.8729741 50.8647819,34.3480306 50.8647819,44.9049457 C49.2231833,54.142474 39.379248,59.4209315 29.5340683,59.4209315 C16.4077278,59.4209315 13.1261143,48.8640164 13.1261143,44.9049457 C14.766921,38.3071012 24.6116482,17.192361 31.1746488,15.8729741 Z" id="Path" fill="#92ABB8" opacity="0.9032"></path>
                <path d="M31.1746488,17.192361 C36.0971821,17.192361 49.2231833,34.3480306 49.2231833,44.9049457 C47.5827159,52.823087 41.0197154,58.1015446 31.1746488,58.1015446 C18.0485345,58.1015446 16.4077278,48.8640164 16.4077278,44.9049457 C14.766921,38.3071012 24.6117613,17.192361 31.1746488,17.192361 Z" id="Path" fill="#8EA8B5" opacity="0.9355"></path>
                <path d="M31.1746488,17.192361 C36.0971821,17.192361 49.2231833,34.3480306 47.5827159,43.5855588 C47.5827159,51.5037001 39.379248,56.7821577 31.1746488,56.7821577 C19.6893412,56.7821577 16.4077278,47.5446295 16.4077278,43.5855588 C14.766921,38.3071012 26.2524549,17.192361 31.1746488,17.192361 Z" id="Path" fill="#8AA5B3" opacity="0.9677"></path>
                <path d="M29.5342946,18.511748 C34.4567148,18.511748 45.9422486,34.3480306 44.3017813,44.9049457 C44.3017813,51.5037001 37.7387807,56.7821577 29.5342946,56.7821577 C18.0487607,56.7821577 16.407954,47.5446295 16.407954,44.9049457 C16.407954,38.3071012 26.2526812,18.511748 29.5342946,18.511748 Z" id="Path" fill="#86A2B0"></path>
            </g>
            <path d="M129,115.00023 C129,125.666651 117.333421,135 103.999828,135 C90.6665786,135 79,125.666651 79,115.00023 C79,96.3335325 103.999828,72.3333487 103.999828,72.3333487 L105.666498,71 L105.666498,72.3333487 C110.66651,79.0000919 129,101.666743 129,115.00023 Z" id="Path" fill="#C4F1FF"></path>
            <path d="M132,116.999512 C132,127.666745 120.333314,137 107.000057,137 C93.6666858,137 82,127.666745 82,116.999512 C82,101.00004 107.000057,73 107.000057,73 C107.000057,73 132,99.6669808 132,116.999512 Z" id="Path" fill="url(#linearGradient-3)"></path>
        </g>
    </g>
</svg>