<?xml version="1.0" encoding="UTF-8"?>
<svg width="200px" height="200px" viewBox="0 0 200 200" version="1.1" xmlns="http://www.w3.org/2000/svg" xmlns:xlink="http://www.w3.org/1999/xlink">
    <title>snowy</title>
    <defs>
        <radialGradient cx="50.1290076%" cy="50.0737141%" fx="50.1290076%" fy="50.0737141%" r="50.1641677%" gradientTransform="translate(0.501290,0.500737),scale(1.000000,0.900763),rotate(-10.808999),translate(-0.501290,-0.500737)" id="radialGradient-1">
            <stop stop-color="#AED5EB" offset="0%"></stop>
            <stop stop-color="#C0DEEF" offset="18.6%"></stop>
            <stop stop-color="#EEF6FB" offset="69.4%"></stop>
            <stop stop-color="#FFFFFF" offset="95%"></stop>
        </radialGradient>
        <radialGradient cx="50.0809314%" cy="49.841881%" fx="50.0809314%" fy="49.841881%" r="49.9213163%" gradientTransform="translate(0.500809,0.498419),scale(1.000000,0.906832),rotate(-10.738312),translate(-0.500809,-0.498419)" id="radialGradient-2">
            <stop stop-color="#AED5EB" offset="0%"></stop>
            <stop stop-color="#C0DEEF" offset="18.6%"></stop>
            <stop stop-color="#EEF6FB" offset="69.4%"></stop>
            <stop stop-color="#FFFFFF" offset="95%"></stop>
        </radialGradient>
        <radialGradient cx="49.6475456%" cy="49.8400011%" fx="49.6475456%" fy="49.8400011%" r="50.16693%" gradientTransform="translate(0.496475,0.498400),scale(1.000000,0.906250),rotate(-10.745078),translate(-0.496475,-0.498400)" id="radialGradient-3">
            <stop stop-color="#AED5EB" offset="0%"></stop>
            <stop stop-color="#C0DEEF" offset="18.6%"></stop>
            <stop stop-color="#EEF6FB" offset="69.4%"></stop>
            <stop stop-color="#FFFFFF" offset="95%"></stop>
        </radialGradient>
        <radialGradient cx="49.6474558%" cy="49.8401067%" fx="49.6474558%" fy="49.8401067%" r="50.166986%" gradientTransform="translate(0.496475,0.498401),scale(1.000000,0.906250),rotate(-10.745076),translate(-0.496475,-0.498401)" id="radialGradient-4">
            <stop stop-color="#AED5EB" offset="0%"></stop>
            <stop stop-color="#C0DEEF" offset="18.6%"></stop>
            <stop stop-color="#EEF6FB" offset="69.4%"></stop>
            <stop stop-color="#FFFFFF" offset="95%"></stop>
        </radialGradient>
    </defs>
    <g id="snowy" stroke="none" stroke-width="1" fill="none" fill-rule="evenodd">
        <g transform="translate(0.000000, 6.000000)" fill-rule="nonzero">
            <g id="Group-2" opacity="0.0612037295" transform="translate(48.000000, 0.000000)">
                <path d="M117.03783,105.129718 C122.890853,140.864985 101.430928,174.434946 69.2419087,180.931828 C37.0528898,187.429676 6.81455974,163.605521 0.962058302,127.870255 C-4.89053013,92.1349878 16.5688738,58.5654129 48.7580667,52.0680478 C80.9470855,45.5706827 112.160891,69.3942582 117.03783,105.129718 Z" id="Path" fill="url(#radialGradient-1)"></path>
                <path d="M145.919885,67.0119553 C152.769656,110.173083 126.350608,152.255705 86.2311448,159.809193 C47.090844,167.36172 8.92953072,138.228485 2.08002172,93.9877925 C-4.76948728,50.8264722 21.6501721,8.74421607 61.768675,1.19098741 C100.908976,-6.36224125 139.070987,22.7716476 145.919885,67.0119553 Z" id="Path" fill="url(#radialGradient-2)"></path>
                <path d="M150.919138,93.9657074 C157.766891,137.14726 131.352261,179.249984 92.2185061,186.807081 C53.0847515,194.364177 14.9293843,165.216064 8.08102083,122.03403 C1.23265739,78.8520918 27.6478109,36.7496568 66.7811293,29.192849 C105.914884,21.6360412 144.070513,50.7837697 150.919138,93.9657074 Z" id="Path" fill="url(#radialGradient-3)"></path>
            </g>
            <g id="Group" opacity="0.0612037295" style="mix-blend-mode: multiply;" transform="translate(0.000000, 25.000000)" fill="url(#radialGradient-4)">
                <path d="M143.918914,65.9658634 C150.767547,109.147457 124.352015,151.250221 85.218478,158.807325 C46.0847667,166.363466 7.92942645,137.216287 1.08102914,94.0342122 C-5.76737689,50.8521372 20.6478848,8.74975837 59.7815962,1.19284709 C98.9154821,-6.36396791 137.070281,22.7838846 143.918914,65.9658634 Z" id="Path"></path>
            </g>
            <path d="M136.262732,49.1336884 L53.6703733,141 C53.6703733,141 52.687086,141 51.7038865,141 C50.7206869,141 50.7206869,141 49.7373997,139.919457 C48.7542001,138.838914 48.7542001,136.676864 49.7373997,135.59632 L132.329758,44.8105519 C133.312782,43.729816 135.279708,43.729816 136.262732,44.8105519 C137.245756,46.9721201 137.245756,48.0529524 136.262732,49.1336884 Z" id="Path" fill="#FFFFFF"></path>
            <path d="M135.35788,64.1857475 C134.379345,65.2714175 132.424019,65.2714175 131.446355,64.1857475 L118.733247,51.1571263 C117.755584,50.0714562 117.755584,47.9000194 118.733247,46.8142525 C119.711782,45.7285825 121.667109,45.7285825 122.644772,46.8142525 L134.379345,59.8428737 C136.335543,60.9285438 136.335543,63.0999806 135.35788,64.1857475 Z" id="Path" fill="#FFFFFF"></path>
            <path d="M67.2714583,138.185911 C66.2999827,139.271363 64.3571181,139.271363 63.3857291,138.185911 L51.7285417,125.157589 C50.7571528,124.071169 50.7571528,121.900266 51.7285417,120.814815 C52.7000173,119.728395 54.6427953,119.728395 55.6142709,120.814815 L67.2714583,133.843137 C68.2428472,134.928589 68.2428472,137.099492 67.2714583,138.185911 Z" id="Path" fill="#FFFFFF"></path>
            <path d="M136.262732,139.921585 C136.262732,141 135.279708,141 134.295807,141 C133.312782,141 133.312782,141 132.329758,139.921585 L49.7373997,50.3933254 C48.7542001,49.3146219 48.7542001,47.1573109 49.7373997,46.0787036 C50.7206869,45 50.7206869,45 51.7038865,45 C52.687086,45 52.687086,45 53.6703733,46.0787036 L136.262732,136.685378 C137.245756,137.763793 137.245756,138.84317 136.262732,139.921585 Z" id="Path" fill="#FFFFFF"></path>
            <path d="M135.35788,124.222118 C135.35788,124.222118 135.35788,125.278353 135.35788,124.222118 L122.644772,137.944706 C121.667109,139 121.667109,139 120.689446,139 C119.711782,139 119.711782,139 118.733247,137.944706 C117.755584,136.88847 117.755584,134.777882 118.733247,133.722588 L130.46782,121.056235 C131.446355,120 131.446355,120 132.424019,120 C133.401682,120 133.401682,120 134.379345,121.056235 C136.335543,122.11153 136.335543,123.166824 135.35788,124.222118 Z" id="Path" fill="#FFFFFF"></path>
            <path d="M67.2714583,51.2777569 L55.6142709,63.9444863 C54.6427953,65 53.6714063,65 53.6714063,65 C52.7000173,65 51.7285417,65 51.7285417,63.9444863 C50.7571528,62.8888784 50.7571528,60.7777569 51.7285417,59.7222431 L63.3857291,47.0555137 C64.3571181,46 64.3571181,46 65.3285937,46 C66.2999827,46 66.2999827,46 67.2714583,47.0555137 C68.2428472,48.1111216 68.2428472,50.2222431 67.2714583,51.2777569 Z" id="Path" fill="#FFFFFF"></path>
            <path d="M94.9994055,158.919278 C93.9997027,160 93.9997027,160 93,160 C92.0002973,160 92.0002973,160 90.9997027,158.919278 C90,157.839519 90,157.839519 90,156.75976 L90,28.2399507 C90,27.1599992 90,27.1599992 90.9997027,26.0799515 C90.9997027,26.0799515 92.0002973,25 93,25 C93.9997027,25 93.9997027,25 94.9994055,26.0799515 C96,27.1599992 96,27.1599992 96,28.2399507 L96,156.75976 C96,157.839519 96,157.839519 94.9994055,158.919278 Z" id="Path" fill="#FFFFFF"></path>
            <path d="M104.000221,147.000297 C102.99955,148 102.99955,148 101.999771,148 L84.9999612,148 C84,148 84,148 82.9999573,147.000297 C82,145.999703 82,145.999703 82,145 C82,144.000297 82,144.000297 82.9999573,143.000595 C84,142 84,142 84.9999612,142 L101.999771,142 C102.99955,142 102.99955,142 104.000221,143.000595 C105,144.000297 105,144.000297 105,145 C105,145.999703 105,145.999703 104.000221,147.000297 Z" id="Path" fill="#FFFFFF"></path>
            <path d="M104.000221,41.9999554 C102.99955,43 102.99955,43 101.999771,43 L84,43 C82.9999573,43 82,41.9999554 82,39.9999554 C82,39 82,39 82.9999573,38.0000446 C84,37 84,37 84.9999612,37 L101.999771,37 C102.99955,37 102.99955,37 104.000221,38.0000446 C105,39 105,39 105,39.9999554 C105,41 104.000221,41 104.000221,41.9999554 Z" id="Path" fill="#FFFFFF"></path>
            <path d="M154.023348,93.9999643 C153.047565,95 153.047565,95 152.071783,95 L35.9279554,95 C34.9519993,95 34.9519993,95 33.9759561,93.9999643 C33,93.9999643 33,93.0000178 33,93.0000178 C33,91.9999822 33,91.9999822 33.9759561,91.0000357 C34.9519993,90 34.9519993,90 35.9279554,90 L152.071783,90 C153.047565,90 153.047565,90 154.023348,91.0000357 C155,91.9999822 155,91.9999822 155,93.0000178 C154.023348,93.0000178 154.023348,93.9999643 154.023348,93.9999643 Z" id="Path" fill="#FFFFFF"></path>
            <path d="M47.9999554,103.913284 C47,105 45.9999554,105 45.9999554,105 C45,105 45,105 43.9999554,103.913284 C43,103.913284 43,102.825598 43,101.738882 L43,83.2608274 C43,82.1739173 43,82.1739173 43.9999554,81.0870071 C45,80 45,80 45.9999554,80 C47,80 47,80 47.9999554,81.0870071 C49,82.1739173 49,82.1739173 49,83.2608274 L49,101.738882 C47.9999554,102.825598 47.9999554,103.913284 47.9999554,103.913284 Z" id="Path" fill="#FFFFFF"></path>
            <path d="M143.000297,103.913284 C141.999703,105 141.999703,105 141,105 C140.000297,105 140.000297,105 139.000595,103.913284 C138,102.826567 138,102.825598 138,101.738882 L138,83.2608274 C138,82.1739173 138,82.1739173 139.000595,81.0870071 C140.000297,80 140.000297,80 141,80 C141.999703,80 141.999703,80 143.000297,81.0870071 C144,82.1739173 144,82.1739173 144,83.2608274 L144,101.738882 C143.000297,102.825598 143.000297,102.826567 143.000297,103.913284 Z" id="Path" fill="#FFFFFF"></path>
            <path d="M118.511892,119.070158 C118.511892,120.154426 117.536497,120.154426 118.511892,119.070158 C117.536497,120.154426 116.561102,120.154426 116.561102,120.154426 L103.878355,117.985891 L95.097189,129.915733 C95.097189,131 94.1217939,131 93.1463988,131 C92.1710037,131 91.1947384,131 91.1947384,129.915733 L83.3902724,117.985891 L70.7073516,120.154426 C69.7317825,120.154426 68.7561264,120.154426 68.7561264,119.070158 C67.7805572,117.985891 67.7805572,117.985891 67.7805572,116.901624 L69.7317825,102.80228 L59.9756561,95.2112485 C59,95.2112485 59,94.1266911 59,93.0422304 C59,91.9576729 59,91.9576729 59,91.9576729 C59,91.9576729 59,91.9576729 59.9756561,90.8732122 L70.7073516,82.1971395 L67.7805572,68.0985698 C67.7805572,67.0140123 67.7805572,67.0140123 67.7805572,65.9295516 C69.7317825,64.8449941 69.7317825,64.8449941 70.7073516,64.8449941 L83.3902724,67.0140123 C91.1947384,55.0844607 91.1947384,55.0844607 91.1947384,55.0844607 C92.1710037,54 92.1710037,54 93.1463988,54 C94.1217939,54 95.097189,54 95.097189,55.0844607 L102.90209,67.0140123 L115.585707,64.8449941 C116.561102,64.8449941 117.536497,64.8449941 117.536497,64.8449941 C118.511892,65.9295516 118.511892,65.9295516 118.511892,67.0140123 L116.561102,82.1971395 L127.293059,90.8732122 C127.293059,90.8732122 127.293059,90.8732122 128.268454,90.8732122 C129.243849,91.9576729 129.243849,93.0422304 128.268454,94.1266911 L116.561102,102.80228 L118.511892,116.901624 C118.511892,117.985891 118.511892,119.070158 118.511892,119.070158 Z M99.9759047,113.647855 C100.9513,112.563587 101.926695,112.563587 101.926695,112.563587 L112.658651,114.732122 L111.683256,102.80228 C111.683256,101.718013 111.683256,101.718013 111.683256,100.633746 C111.683256,100.633746 111.683256,100.633746 112.658651,99.5494783 L121.438948,91.9576729 L112.658651,85.4506184 C111.683256,84.3661577 111.683256,83.2816002 111.683256,83.2816002 L113.634047,71.3520486 L101.926695,72.4366061 C100.9513,72.4366061 99.9759047,72.4366061 99.9759047,71.3520486 L93.1463988,61.5915152 L86.3171538,71.3520486 C86.3171538,72.4366061 85.3414977,72.4366061 84.3659285,72.4366061 L73.634146,70.2675879 L75.5853713,82.1971395 C75.5853713,83.2816002 75.5853713,83.2816002 75.5853713,84.3661577 C75.5853713,84.3661577 75.5853713,84.3661577 74.6098022,85.4506184 L64.8536758,93.0422304 L73.634146,100.633746 C74.6098022,101.718013 74.6098022,101.718013 74.6098022,102.80228 L72.6585769,114.732122 L83.3902724,112.563587 C84.3659285,112.563587 85.3414977,112.563587 85.3414977,113.647855 L92.1710037,123.408195 L99.9759047,113.647855 Z" id="Shape" fill="#FFFFFF"></path>
            <path d="M135,112.988705 C135,112.988705 134.022878,112.988705 135,112.988705 C134.022878,114.068926 134.022878,114.068926 134.022878,114.068926 L116.44687,118.390771 L112.540994,137.838595 L112.540994,138.919779 L111.564743,140 C110.587621,140 109.611369,140 109.611369,140 L94.9641157,129.194904 L80.3175589,140 C79.3410464,140 78.3646208,140 78.3646208,140 C77.3881082,140 77.3881082,138.919779 77.3881082,137.838595 L73.482232,118.390771 L55.9058762,114.068926 C54.9293636,114.068926 54.9293636,112.988705 53.9529381,112.988705 C53.9529381,111.907521 53.9529381,110.8273 53.9529381,110.8273 L63.7176286,94.6206199 L52,76.2528237 C52,75.1724105 52,74.0919009 52,74.0919009 C52,74.0919009 52,74.0919009 52,73.0114876 L52.9764255,71.930978 L70.5528684,67.6091323 L74.4587446,48.1609229 L74.4587446,47.0804133 L75.4351701,46 C76.4116827,46 77.3881082,46 77.3881082,46 L92.0353617,56.804518 L106.681744,46 C107.658867,46 108.635118,46 108.635118,46 C109.611369,46 109.611369,47.0804133 109.611369,48.1609229 L113.517245,67.6091323 L131.094124,71.930978 C132.070375,71.930978 132.070375,73.0114876 133.046626,73.0114876 C133.046626,74.0919009 133.046626,75.1724105 133.046626,75.1724105 L123.282371,91.3792838 L133.046626,107.585675 C135,110.8273 135,111.907521 135,112.988705 C135,112.988705 135,111.907521 135,112.988705 Z M111.564743,114.068926 L112.540994,112.988705 L128.164499,108.666859 L120.352747,94.6206199 C120.352747,93.5402066 120.352747,92.459697 120.352747,91.3792838 L129.14075,76.2528237 L113.517245,73.0114876 C112.540994,73.0114876 111.564743,71.930978 111.564743,70.8505647 L107.658867,53.5631818 L93.9878644,63.2872865 C93.0116131,63.2872865 92.0353617,64.3677962 91.0582395,63.2872865 L78.3646208,53.5631818 L74.4587446,70.8505647 L74.4587446,71.930978 L73.482232,73.0114876 L57.8588143,77.333237 L66.6469922,92.459697 C66.6469922,93.5402066 67.6235048,94.6206199 66.6469922,95.7011295 L57.8588143,110.8273 L73.482232,115.149146 C74.4587446,115.149146 75.4351701,116.229367 75.4351701,117.310551 L79.3410464,134.597934 L93.0116131,124.873058 C93.9878644,124.873058 94.9641157,124.873058 95.9412379,124.873058 L109.611369,134.597934 L111.564743,114.068926 C111.564743,115.149146 111.564743,115.149146 111.564743,114.068926 Z" id="Shape" fill="#FFFFFF"></path>
            <path d="M138,49.1336655 L55.6563351,139.919457 C54.6760034,141 53.6957591,141 53.6957591,141 C52.7155149,141 51.7351832,141 51.7351832,139.919457 C50.7549389,138.838913 50.7549389,136.676863 51.7351832,135.596319 L134.078848,44.8106244 C135.059792,43.7297919 137.019931,43.7297919 138,44.8106244 C138,45.8913606 138,48.0529294 138,49.1336655 Z" id="Path" fill="#E1F0FA"></path>
            <path d="M136.271577,64.185678 C135.300347,65.2714407 133.357019,65.2714407 132.385789,64.185678 L120.728423,51.1571065 C119.757192,50.0714407 119.757192,47.9000121 120.728423,46.8142494 C121.699653,45.7285835 123.642981,45.7285835 124.614211,46.8142494 L136.271577,59.8428208 C137.242808,60.9285835 137.242808,62.0142494 136.271577,64.185678 Z" id="Path" fill="#E1F0FA"></path>
            <path d="M70,137.185185 C70,137.185185 69.0447316,137.185185 70,137.185185 C69.0447316,138.271605 67.13428,138.271605 66.1790968,137.185185 L54.7163874,124.156863 C53.7612042,123.071411 53.7612042,120.900508 54.7163874,119.814089 C55.6715706,118.728637 57.5820222,118.728637 58.5372905,119.814089 L70,132.842411 C70,135.014282 70,136.099734 70,137.185185 Z" id="Path" fill="#E1F0FA"></path>
            <path d="M138.595435,139.922458 C137.619653,141 136.643871,141 136.643871,141 C135.668089,141 135.668089,141 134.691437,139.922458 L51.7320324,49.3888622 C50.7559892,48.3111282 50.7559892,46.1555641 51.7320324,45.077734 C52.7079885,45.077734 53.6840317,44 53.6840317,44 C53.6840317,44 54.6599878,44 55.6359439,45.077734 L137.619653,135.61133 C138.595435,136.688872 139.572088,138.844917 138.595435,139.922458 Z" id="Path" fill="#E1F0FA"></path>
            <path d="M136.357812,124.222118 L123.645466,137.944706 C122.666922,139 122.666922,139 121.689251,139 C120.711579,139 120.711579,139 119.733908,137.944706 C118.755364,136.88847 118.755364,134.777882 119.733908,133.722588 L131.468583,121.056235 C132.446254,120 132.446254,120 133.423926,120 C134.401597,120 134.401597,120 135.380141,121.056235 C137.335484,121.056235 137.335484,123.166824 136.357812,124.222118 Z" id="Path" fill="#E1F0FA"></path>
            <path d="M70,50.2222431 C69.0422102,50.2222431 69.0422102,51.2777569 70,50.2222431 L57.5492452,63.9444863 C56.5915409,63.9444863 56.5915409,65 55.6337511,65 C54.6760467,65 54.6760467,65 53.7183423,63.9444863 C52.7605526,62.8889726 52.7605526,60.777851 53.7183423,59.7222431 L65.2112219,47.0555137 C66.1690117,46 66.1690117,46 67.126716,46 C68.0845058,46 68.0845058,46 69.0422102,47.0555137 C70,48.1111216 70,49.1666353 70,50.2222431 Z" id="Path" fill="#E1F0FA"></path>
            <path d="M97.0001487,157.920236 C96.0002973,159 96.0002973,159 94.999554,159 C93.9997027,159 93.9997027,159 92.9998513,157.920236 C92,156.840472 92,156.840472 92,155.760707 L92,27.2400632 C92,26.16001 92,26.16001 92.9998513,25.0800532 C93.9997027,24 93.9997027,24 94.999554,24 C96.0002973,24 96.0002973,24 97.0001487,25.0800532 C98,26.16001 98,26.16001 98,27.2400632 L98,155.760707 C97.0001487,156.840472 97.0001487,157.920236 97.0001487,157.920236 Z" id="Path" fill="#E1F0FA"></path>
            <path d="M105.000213,145.999405 C105.000213,145.999405 105.000213,147 105.000213,145.999405 C104.000427,147 104.000427,147 102.999748,147 L86.0000737,147 C85.0000194,147 85.0000194,147 84.0000543,145.999405 C83,144.999703 83,144.999703 83,144 C83,143.000297 83,143.000297 84.0000543,141.999703 C85.0000194,141 85.0000194,141 86.0000737,141 L102.999748,141 C104.000427,141 104.000427,141 105.000213,141.999703 C106,143.000297 106,143.000297 106,144 C106,144.999703 106,145.999405 105.000213,145.999405 Z" id="Path" fill="#E1F0FA"></path>
            <path d="M105.000213,40.9999554 C105.000213,42 104.000427,42 102.999748,42 L86.0000737,42 C84.0000543,42 83,40.9999554 83,38.9999554 C83,38 83,38 84.0000543,36.9999554 C85.0000194,36 85.0000194,36 86.0000737,36 L102.999748,36 C104.000427,36 104.000427,36 105.000213,36.9999554 C106,38 106,38 106,38.9999554 C106,40 106,40.9999554 105.000213,40.9999554 Z" id="Path" fill="#E1F0FA"></path>
            <path d="M155.024217,93.9999554 C154.047563,95 154.047563,95 153.071779,95 L36.9279596,95 C35.9520021,95 35.9520021,95 34.9760446,93.9999554 C34.9760446,93.9999554 34,93 34,91.9999554 C34,91 34,91 34.9760446,89.9999554 C35.9520021,89 35.9520021,89 36.9279596,89 L153.071779,89 C154.047563,89 154.047563,89 155.024217,89.9999554 C156,91 156,91 156,91.9999554 C156,93 155.024217,93 155.024217,93.9999554 Z" id="Path" fill="#E1F0FA"></path>
            <path d="M49.0000446,103.913284 C48,103.913284 48,105 47.0000446,105 C46,105 46,105 45.0000446,103.913284 C44,102.826567 44,102.826567 44,101.738882 L44,83.2609244 C44,82.1739173 44,82.1739173 45.0000446,81.0870071 C46,80 46,80 47.0000446,80 C48,80 48,80 49.0000446,81.0870071 C50,82.1739173 50,82.1739173 50,83.2609244 L50,101.738882 C50,101.738882 50,102.826567 49.0000446,103.913284 Z" id="Path" fill="#E1F0FA"></path>
            <path d="M144.000149,102.913292 C144.000149,104 144.000149,104 144.000149,102.913292 C143.000297,104 143.000297,104 141.999554,104 C140.999703,104 140.999703,104 139.999851,102.913292 C139,101.825615 139,101.825615 139,100.738907 L139,82.2608021 C139,81.1739004 139,81.1739004 139.999851,80.0869017 C140.999703,79 140.999703,79 141.999554,79 C143.000297,79 143.000297,79 144.000149,80.0869017 C145,81.1739004 145,81.1739004 145,82.2608021 L145,100.738907 C145,101.825615 145,102.913292 144.000149,102.913292 Z" id="Path" fill="#E1F0FA"></path>
            <path d="M119.512723,119.070158 C118.536454,120.154426 117.561056,120.154426 117.561056,120.154426 L104.878262,117.985891 L97.0733314,129.915733 C97.0733314,131 96.0979327,131 95.1216638,131 C94.1462651,131 93.1708663,131 93.1708663,129.915733 L85.3659361,117.985891 L72.6829681,120.154426 C71.7073953,120.154426 70.7317355,120.154426 70.7317355,119.070158 C69.7561627,117.985891 69.7561627,117.985891 69.7561627,116.901624 L71.7073953,102.803247 L60.9755728,94.1266911 C60,94.1266911 60,93.0422304 60,91.9576729 C60,90.8732122 60,90.8732122 60,89.7886547 C60,89.7886547 60,89.7886547 60.9755728,88.704194 L71.7073953,81.1126788 L69.7561627,67.0140123 C69.7561627,65.9295516 69.7561627,65.9295516 69.7561627,64.8450909 C70.7317355,63.7605334 71.7073953,63.7605334 71.7073953,63.7605334 L84.3903634,65.9295516 C92.1954676,54 92.1954676,54 92.1954676,54 C93.1708663,54 94.1462651,54 94.1462651,54 C95.1216638,54 96.0979327,54 96.0979327,55.0844607 L103.902863,67.0140123 L116.585657,64.8450909 C117.561056,64.8450909 118.536454,64.8450909 118.536454,65.9295516 C119.512723,67.0140123 119.512723,67.0140123 119.512723,68.0985698 L117.561056,81.1126788 L128.293052,89.7886547 C128.293052,89.7886547 128.293052,89.7886547 129.268451,89.7886547 C130.24385,90.8732122 130.24385,91.9576729 129.268451,93.0422304 L117.561056,102.803247 L119.512723,116.901624 C119.512723,117.985891 119.512723,117.985891 119.512723,119.070158 Z M100.975797,113.647855 C100.975797,113.647855 100.975797,112.563587 100.975797,113.647855 C101.951195,112.563587 102.926594,112.563587 102.926594,112.563587 L113.658591,114.732122 L112.683192,101.718013 C112.683192,100.633746 112.683192,100.633746 112.683192,99.5494783 C112.683192,99.5494783 112.683192,99.5494783 113.658591,98.465211 L122.438919,90.8732122 L113.658591,84.3661577 C112.683192,84.3661577 112.683192,83.281697 112.683192,82.1971395 L114.633989,70.2675879 L103.902863,72.4366061 C102.926594,72.4366061 101.951195,72.4366061 101.951195,71.3520486 L94.1462651,60.5070545 L88.2930025,71.3520486 C87.3176037,71.3520486 86.3415959,72.4366061 85.3659361,72.4366061 L74.6342006,70.2675879 L76.5854332,82.1971395 C76.5854332,83.281697 76.5854332,83.281697 76.5854332,84.3661577 C76.5854332,84.3661577 76.5854332,84.3661577 75.6097734,85.4507151 L66.8292704,91.9576729 L75.6097734,99.5494783 C76.5854332,100.633746 76.5854332,100.633746 76.5854332,101.718013 L74.6342006,113.647855 L85.3659361,111.478353 C86.3415959,111.478353 87.3176037,111.478353 87.3176037,112.563587 L94.1462651,122.323927 L100.975797,113.647855 Z" id="Shape" fill="#E1F0FA"></path>
            <path d="M136.61412,111.964421 C136.61412,111.964421 136.61412,113.046539 136.61412,111.964421 C135.630453,113.046539 135.630453,113.046539 135.630453,113.046539 L117.920064,117.372115 L113.984519,136.836729 L113.984519,137.917882 L113.000852,139 C112.017186,139 111.032641,139 111.032641,139 L96.2750076,128.185575 L81.5164962,139 C80.532654,139 79.548724,139 79.548724,139 C78.5648817,139 78.5648817,137.917882 78.5648817,136.836729 L71.6777226,118.453269 L53.9677723,114.127692 C52.98393,114.127692 52.98393,113.046539 52,113.046539 C52,111.964421 52,110.883268 52,110.883268 L61.8388613,94.6625956 L52.98393,76.2789419 C52.98393,75.1975959 52.98393,74.1161535 52.98393,74.1161535 C52.98393,74.1161535 52.98393,74.1161535 52.98393,73.0348075 L53.9677723,71.953365 L71.6777226,67.6277881 L75.6131794,48.1627885 L75.6131794,47.081346 L76.5971094,46 C77.5809517,46 78.5648817,46 78.5648817,46 L93.3231298,56.8139423 L108.081641,46 C109.065308,46 110.048975,46 110.048975,46 C111.032641,46 111.032641,47.081346 111.032641,48.1627885 L114.968186,67.6277881 L132.678575,71.953365 C133.662242,71.953365 133.662242,73.0348075 134.645909,73.0348075 C134.645909,74.1161535 134.645909,75.1975959 134.645909,75.1975959 L124.807486,91.4184611 L134.645909,107.638844 C136.61412,109.802115 137.597786,110.883268 136.61412,111.964421 Z M113.984519,114.127692 L114.968186,113.046539 L130.710364,108.720962 L121.855608,93.5812496 C121.855608,92.4998071 121.855608,91.4184611 121.855608,90.3370187 L130.710364,76.2789419 L114.968186,71.953365 C113.984519,71.953365 113.000852,70.872019 113.000852,69.7905766 L110.048975,53.5697114 L96.2750076,62.2208652 C95.2904633,62.2208652 94.3067966,62.2208652 93.3231298,62.2208652 L79.548724,53.5697114 L76.5971094,69.7905766 L76.5971094,70.872019 L75.6131794,71.953365 L58.8871591,76.2789419 L67.7421781,91.4184611 C68.7260204,92.4998071 68.7260204,93.5812496 67.7421781,94.6625956 L58.8871591,108.720962 L74.6293372,113.046539 C75.6131794,113.046539 76.5971094,114.127692 76.5971094,115.208845 L80.532654,132.511152 L94.3067966,122.778845 C95.2904633,122.778845 96.2750076,122.778845 97.2586743,122.778845 L111.032641,132.511152 L113.984519,114.127692 C113.984519,114.127692 113.000852,114.127692 113.984519,114.127692 Z" id="Shape" fill="#E1F0FA"></path>
        </g>
    </g>
</svg>