<?xml version="1.0" encoding="UTF-8"?>
<svg width="200px" height="200px" viewBox="0 0 200 200" version="1.1" xmlns="http://www.w3.org/2000/svg" xmlns:xlink="http://www.w3.org/1999/xlink">
    <title>cloudy</title>
    <g id="cloudy" stroke="none" stroke-width="1" fill="none" fill-rule="evenodd">
        <g transform="translate(0.000000, 26.000000)" fill-rule="nonzero">
            <g id="Group" opacity="0.0820850191" style="mix-blend-mode: multiply;" transform="translate(26.000000, 15.000000)">
                <path d="M164.226075,105.552304 C177.806292,92.4835197 175.259471,50.2628362 168.469748,38.1997445 C159.133204,23.1208571 149.79666,14.0735612 141.309313,9.04729587 C132.821967,4.02103056 109.905206,6.50275178e-15 98.8718103,6.50275178e-15 C83.5939692,6.50275178e-15 69.1653263,4.02103056 57.2827327,8.04206111 C43.7027472,12.0630917 18.2400908,23.1208571 6.35757445,39.2050708 C-7.22248837,57.2996625 4.66002796,93.4893036 8.05504367,99.5203461 C14.8450751,109.572694 22.4838411,119.625956 33.5177001,125.656999 C43.7027472,131.688957 52.1906342,130.683173 59.828782,131.688957 C65.7700788,132.693825 90.3844643,135.710262 104.813107,132.693825 C114.998077,129.678304 132.821967,125.656999 137.914839,122.641478 C141.309313,119.625956 153.191907,116.60952 164.226075,105.552304 Z" id="Path" fill="#F9FBFB" opacity="0.047619"></path>
                <path d="M161.679253,103.541651 C175.259471,90.4728672 172.713421,50.2628362 165.922926,38.1997445 C156.586382,23.1208571 147.25061,15.0787959 138.763264,10.0525306 C130.275145,5.0261738 109.05678,1.00514324 98.0226121,1.00514324 C83.5939692,1.00514324 68.3161281,5.0261738 56.4335345,9.04729587 C43.7024381,13.0683264 18.2397817,24.1260918 7.20599998,39.2049793 C-6.37406284,56.2944278 4.65971888,92.4835197 8.9034692,98.5154774 C15.6935779,108.567825 22.4836093,118.620173 33.517391,123.646346 C43.7024381,128.67252 52.1898615,128.67252 58.9803565,128.67252 C64.9216533,129.678304 87.8376423,133.699609 103.115483,129.678304 C114.148879,126.662783 130.275145,122.641478 135.368017,119.625956 C139.61169,117.615304 150.645858,114.599783 161.679253,103.541651 Z" id="Path" fill="#F4F6F8" opacity="0.095238"></path>
                <path d="M159.981629,102.535867 C173.561847,89.4679985 171.015797,51.2681625 164.226075,39.2050708 C155.737956,24.1261833 145.552987,16.0841222 137.06564,11.0577654 C129.42672,6.03150007 108.207582,2.01046952 98.0226121,2.01046952 C83.5939692,2.01046952 69.1653263,5.02626531 57.2827327,9.04729587 C44.5514045,13.0683264 19.0887481,25.1314181 8.0549664,39.2050708 C-4.67636181,56.2944278 5.5086853,90.4728672 9.75243561,96.5048248 C15.6937324,106.557172 23.3324984,115.604651 33.5175455,121.636609 C42.853858,126.662783 51.3414359,125.656999 58.1311583,126.662783 C63.2240295,127.667651 86.1400185,131.688957 101.41786,128.673435 C112.452028,125.656999 127.729096,121.636609 132.821967,118.620173 C137.06564,115.604651 148.948234,112.58913 159.981629,102.535867 Z" id="Path" fill="#EEF2F4" opacity="0.1429"></path>
                <path d="M157.43558,101.530999 C170.166599,89.4679985 168.468975,52.2733972 161.679253,40.2103056 C153.191907,25.1314181 143.855363,18.0945917 135.368017,13.0683264 C127.729096,8.04196959 108.207582,4.02093904 97.1741866,4.02093904 C83.5939692,2.01046952 69.1653263,6.03150007 57.2827327,10.0525306 C44.5511727,14.0735612 19.0885163,25.1314181 8.9034692,39.2049793 C-3.82778174,55.2891015 5.50845349,88.4622146 10.6010157,95.499041 C16.5423125,104.54652 23.3323439,114.599783 33.517391,119.625956 C42.8537035,124.65213 51.3414359,123.646346 58.1311583,124.65213 C63.2240295,125.656999 85.291593,130.683173 100.568661,126.662783 C111.602829,124.65213 126.880671,118.620173 131.124344,116.60952 C135.368017,113.593999 146.401412,111.583346 157.43558,101.530999 Z" id="Path" fill="#E9EDF1" opacity="0.1905"></path>
                <path d="M154.889531,99.5203461 C167.62055,87.4573459 165.922926,51.2680709 159.981629,39.2049793 C151.494283,24.1261833 142.157739,17.089357 133.670393,12.0630001 C126.031472,8.04196959 107.359156,3.01570428 97.1741866,3.01570428 C83.5939692,3.01570428 69.1653263,7.03673483 57.2827327,10.0525306 C44.5513273,15.0787959 19.9374827,26.1366528 9.75243561,39.2049793 C-2.13015798,54.2838667 6.35734264,87.4573459 11.4499048,93.4893036 C17.3912016,102.535867 23.3324984,111.583346 34.3662802,117.615304 C43.7025927,122.641478 52.1898615,120.630825 58.1311583,121.636609 C63.2240295,122.641478 84.4423948,127.667651 99.7202359,124.65213 C110.754404,122.641478 125.183047,116.60952 129.42672,113.593999 C133.670393,111.583346 144.704561,109.572694 154.889531,99.5203461 Z" id="Path" fill="#E3E9ED" opacity="0.2381"></path>
                <path d="M153.191907,98.5154774 C165.923699,87.4573459 164.226075,52.2733972 158.284778,40.2103056 C149.797432,25.1314181 140.460888,19.0998265 132.821967,14.0735612 C125.183047,10.0525306 107.359156,5.02626531 97.1741866,5.02626531 C83.5939692,4.02093904 69.1653263,7.03673483 57.2827327,11.0577654 C44.5516363,15.0787959 20.7865264,26.1366528 10.6014793,39.2049793 C-1.2811143,54.2838667 7.2064636,85.4466934 12.2989485,92.4835197 C18.2402453,100.52613 23.3327302,110.578478 34.3665892,115.604651 C43.7029017,120.630825 51.3414359,118.620173 58.131931,119.625956 C63.2240295,120.630825 83.5939692,125.656999 98.0233848,122.641478 C109.05678,120.630825 122.636998,114.599783 126.880671,111.583346 C131.124344,109.572694 142.158512,107.562956 153.191907,98.5154774 Z" id="Path" fill="#DEE5EA" opacity="0.2857"></path>
                <path d="M150.645858,96.5048248 C163.376877,85.4466934 161.679253,52.2733972 155.737956,40.2103056 C147.25061,25.1314181 137.914066,19.0998265 130.275918,15.0787959 C122.636998,11.0577654 106.510731,6.03150007 96.3257611,6.03150007 C83.5939692,4.02093904 69.1653263,8.04206111 57.2827327,12.0630917 C44.5514045,16.0841222 20.7862946,27.1418876 11.4500594,39.2049793 C0.416200381,53.278632 7.20623179,83.4360408 13.1475286,91.478651 C18.2400908,99.5203461 24.1813103,108.567825 34.3663574,113.593999 C43.7026699,117.615304 51.3414359,116.60952 57.2827327,117.615304 C62.375604,118.620173 81.8963455,124.65213 96.3257611,121.636609 C107.359156,119.625956 120.939374,112.58913 124.334621,110.578478 C129.42672,107.562956 140.460888,105.552304 150.645858,96.5048248 Z" id="Path" fill="#D8E0E6" opacity="0.3333"></path>
                <path d="M148.099808,95.499041 C160.830828,85.4466934 159.133204,53.278632 153.191907,41.2155403 C145.552987,26.1366528 136.217215,21.1103875 127.729096,16.0841222 C120.939374,12.0630917 104.813107,8.04206111 95.4765628,7.03673483 C83.5939692,5.02626531 69.1653263,8.04206111 57.2827327,12.0630917 C45.4001391,16.0841222 21.6350292,28.1472139 12.298794,39.2050708 C2.1136696,52.2733972 8.0549664,81.4263035 13.1475286,89.4679985 C18.2400135,97.5096935 23.3325757,106.557172 33.5176228,111.583346 C42.8539353,115.604651 50.4930104,113.593999 56.4343072,114.599783 C61.5264058,115.604651 80.1987217,121.636609 94.6281373,118.620173 C105.661533,116.60952 118.393324,109.572694 122.636998,107.562956 C127.729096,104.54652 137.914066,104.54652 148.099808,95.499041 Z" id="Path" fill="#D3DCE3" opacity="0.381"></path>
                <path d="M146.401412,94.4941723 C158.284006,84.4418247 157.43558,54.2838667 151.494283,41.2155403 C143.855363,26.1366528 134.518818,21.1103875 126.880671,17.089357 C120.090176,13.0683264 105.661533,9.04729587 95.4765628,8.04196959 C83.5939692,6.03150007 69.1653263,9.04729587 58.1311583,13.0683264 C45.3999073,17.089357 21.6347974,28.1472139 13.1472195,39.2049793 C2.9621724,52.2733972 8.9034692,80.4205196 13.9960314,88.4622146 C19.0885163,95.499041 23.3322666,105.552304 34.3661256,109.572694 C43.7024381,113.593999 51.3414359,111.583346 56.4335345,112.58913 C61.5264058,113.593999 78.501098,120.630825 93.7789391,117.615304 C104.812334,115.604651 116.694928,108.567825 120.939374,105.552304 C125.183047,102.535867 136.216442,102.535867 146.401412,94.4941723 Z" id="Path" fill="#CDD8DF" opacity="0.4286"></path>
                <path d="M143.856135,92.4835197 C155.738729,82.4311721 154.889531,54.2838667 148.948234,41.2155403 C141.309313,26.1366528 131.973542,21.1103875 124.334621,17.089357 C117.544126,13.0683264 103.964682,9.04729587 94.6281373,8.04206111 C83.5939692,7.03673483 69.1653263,9.04729587 57.2827327,13.0683264 C45.4002937,17.089357 22.4839184,29.1524486 13.9964177,39.2050708 C4.66010523,51.2681625 8.90385555,78.409867 14.8451523,86.4524772 C19.9377145,93.4893036 23.3327302,102.535867 34.366512,107.562956 C43.7028245,111.583346 50.4930104,109.572694 56.4343072,110.578478 C61.5264058,111.583346 77.6526724,118.620173 92.9305135,115.604651 C103.964682,113.593999 114.998077,105.552304 119.24175,103.541651 C123.485423,100.52613 133.670393,100.52613 143.856135,92.4835197 Z" id="Path" fill="#C8D3DC" opacity="0.4762"></path>
                <path d="M141.309313,91.478651 C153.191907,82.4311721 152.343482,55.289193 146.402185,42.2207751 C138.763264,26.1366528 129.42672,23.1209486 122.636998,19.099918 C115.846503,15.0787959 103.963909,11.0577654 94.6281373,10.0525306 C83.5939692,9.04729587 69.1653263,11.0577654 58.1311583,15.0787959 C45.4001391,19.0998265 23.3325757,31.1630097 15.6937324,40.2103056 C6.35741991,50.2628362 9.75243561,76.3992145 15.6937324,85.4466934 C19.93756,92.4835197 23.3325757,101.530999 34.3663574,105.552304 C42.853858,109.572694 50.4930104,106.557172 55.585109,107.562956 C60.6779803,108.567825 75.9550487,116.60952 91.2328898,113.593999 C102.267058,111.583346 113.300453,103.541651 116.695701,101.530999 C120.939374,98.5154774 131.124344,99.5203461 141.309313,91.478651 Z" id="Path" fill="#C2CFD8" opacity="0.5238"></path>
                <path d="M139.61169,89.4679985 C151.494283,80.4205196 150.645858,54.2838667 144.704561,41.2155403 C137.06564,25.1314181 128.578294,22.1156223 120.939374,18.0945917 C114.998077,15.0787959 103.115483,10.0525306 93.7789391,9.04729587 C83.5939692,8.04206111 69.1653263,11.0577654 58.131931,14.0735612 C45.4002937,19.099918 23.332653,30.1576834 15.693887,39.2050708 C7.20638633,49.2576014 10.601402,75.3943458 16.5426216,84.4418247 C20.7864491,90.4728672 24.1814648,99.5203461 34.366512,104.54652 C42.8540126,107.562956 50.4930104,105.552304 54.7366835,106.557172 C59.828782,107.562956 74.2581976,115.604651 89.535266,112.58913 C100.569434,110.578478 110.754404,102.535867 114.149651,100.52613 C119.24175,96.5048248 129.42672,97.5096935 139.61169,89.4679985 Z" id="Path" fill="#BDCAD5" opacity="0.5714"></path>
                <path d="M137.06564,88.4622146 C148.948234,80.4205196 148.948234,55.2891015 143.006937,42.2207751 C136.217215,26.1366528 126.880671,24.1261833 119.24175,20.1050613 C113.300453,17.089357 103.115483,12.0630001 93.7789391,11.0577654 C83.5939692,9.04729587 69.1653263,11.0577654 58.131931,15.0787959 C46.2491056,19.0998265 23.3327302,31.1629182 16.5426988,39.2049793 C8.90385555,49.2576014 10.601402,73.3837848 17.3914334,82.4311721 C21.6351838,88.4622146 24.1814648,97.5096935 35.2152466,101.530999 C43.7028245,104.54652 50.4930104,101.530999 55.585109,103.541651 C60.6779803,104.54652 74.2581976,113.593999 89.535266,110.578478 C100.569434,108.567825 109.905978,100.52613 113.300453,97.5096935 C117.544126,94.4941723 126.880671,95.499041 137.06564,88.4622146 Z" id="Path" fill="#B7C6D1" opacity="0.619"></path>
                <path d="M135.368017,87.4573459 C146.402185,79.4156509 146.402185,56.2944278 140.460888,43.2261013 C133.670393,27.1419791 124.334621,25.1314181 117.544126,21.1103875 C111.602829,18.0945917 102.267058,13.0683264 92.9305135,12.0630917 C82.7455437,10.0525306 69.1653263,12.0630917 58.1311583,16.0841222 C46.248951,20.1051528 24.1813103,31.1630097 18.2400908,39.2050708 C10.6012475,48.2523667 11.4500594,71.3733152 18.2400908,81.4263035 C22.4838411,87.4573459 24.1813103,95.499041 35.2151693,99.5203461 C43.7026699,102.535867 50.4930104,99.5203461 54.7366835,100.52613 C58.9803565,101.530999 72.5605739,110.578478 86.9892167,107.562956 C98.8718103,105.552304 107.359156,96.5048248 109.905206,94.4941723 C114.998077,92.4835197 125.183047,94.4941723 135.368017,87.4573459 Z" id="Path" fill="#B2C2CE" opacity="0.6667"></path>
                <path d="M132.821195,85.4466934 C143.855363,78.409867 143.855363,56.2944278 138.762491,43.2260098 C131.972769,27.1418876 123.485423,26.1366528 115.846503,22.1156223 C109.905206,19.0998265 102.266285,15.0787959 92.9305135,13.0683264 C83.5939692,11.0577654 69.1653263,13.0683264 58.9795838,17.089357 C47.0973765,21.1103875 25.0298131,33.1734792 19.0885163,40.2103056 C12.2984849,48.2523667 12.2984849,71.3733152 19.9372509,80.4205196 C23.3322666,85.4466934 24.1810012,93.4893036 35.2148602,97.5096935 C43.7023608,100.52613 50.4922377,97.5096935 54.7359108,98.5154774 C58.9795838,99.5203461 71.7113756,109.572694 86.1400185,106.557172 C98.0226121,104.54652 105.661533,95.499041 108.207582,93.4893036 C113.300453,90.4728672 122.636225,92.4835197 132.821195,85.4466934 Z" id="Path" fill="#ACBDCA" opacity="0.7143"></path>
                <path d="M130.275918,84.4418247 C141.309313,77.4049983 141.309313,57.2996625 136.216442,43.2261013 C129.42672,27.1418876 120.939374,26.1366528 113.300453,23.1208571 C108.207582,20.1051528 100.569434,15.0787959 92.0813153,13.0683264 C82.7455437,11.0577654 69.1653263,13.0683264 58.1311583,16.0841222 C46.2488738,21.1103875 25.0299676,32.1682444 19.9374827,39.2049793 C13.1474513,46.2418056 13.1474513,68.3575194 19.9374827,78.409867 C23.3324984,83.4360408 24.181233,92.4835197 35.2150148,95.499041 C43.7025927,98.5154774 50.4930104,94.4941723 53.8874852,96.5048248 C58.1311583,98.5154774 70.0137519,107.562956 84.4431675,104.54652 C96.3249884,102.535867 103.115483,93.4893036 106.510731,91.478651 C110.754404,88.4622146 120.939374,90.4728672 130.275918,84.4418247 Z" id="Path" fill="#A7B9C7" opacity="0.7619"></path>
                <path d="M128.578294,82.4311721 C138.763264,75.3942543 139.61169,57.2996625 134.519591,43.2260098 C127.729096,27.1418876 119.24175,27.1418876 112.452028,23.1208571 C107.359156,20.1050613 101.41786,16.0840307 92.082088,14.0735612 C83.5939692,12.0630001 69.1653263,13.0682891 58.9803565,17.089357 C47.0977629,21.1103875 25.8788568,33.1734792 20.7863719,39.2049793 C14.8450751,46.2418056 13.9963405,66.3469584 20.7863719,77.4049983 C24.1813876,82.4311721 25.0301222,90.4728672 35.2151693,94.4941723 C43.7027472,97.5096935 49.644044,93.4893036 53.8874852,94.4941723 C58.131931,95.499041 69.1653263,105.552304 83.5939692,102.535867 C95.4765628,100.52613 102.267058,90.4728672 104.813107,89.4679985 C109.05678,86.4524772 118.393324,88.4622146 128.578294,82.4311721 Z" id="Path" fill="#A1B5C3" opacity="0.8095"></path>
                <path d="M126.032245,81.4263035 C136.217215,75.3943458 137.06564,58.3048973 131.973542,44.2313361 C126.032245,28.1472139 116.695701,28.1472139 109.905206,25.1314181 C104.813107,22.1156223 99.7202359,18.0945917 91.2328898,16.0841222 C82.7455437,14.0735612 69.1653263,15.0788264 58.9803565,19.0998265 C47.0977629,22.1156223 25.8789341,33.1734792 21.6351065,39.2049793 C15.693887,45.2365709 13.9963405,64.3364889 21.6351065,75.3943458 C25.0301222,79.4156509 25.0301222,88.4631298 36.0639812,91.478651 C43.7027472,93.4893036 50.4930104,90.4728672 53.8874852,91.478651 C58.131931,93.4893036 67.4677026,103.541651 82.7455437,100.52613 C94.6281373,98.5154774 100.569434,88.4631298 103.115483,86.4524772 C107.359156,84.4418247 115.846503,87.4573459 126.032245,81.4263035 Z" id="Path" fill="#9CB0C0" opacity="0.8571"></path>
                <path d="M123.485423,79.4156509 C133.670393,73.3837848 134.519591,57.2996625 129.42672,44.2313361 C123.485423,28.1472139 114.998077,29.1524486 108.208355,25.1314181 C103.115483,22.1156223 98.8718103,18.0945917 90.3844643,16.0841222 C82.7455437,14.0735612 68.3169008,15.0787959 58.1311583,18.0945917 C46.248951,22.1156223 25.8788568,34.178714 21.6351065,38.1997445 C16.5425443,44.2313361 13.9962632,62.3259278 21.6351065,73.3837848 C24.1813103,77.4049983 24.1813103,85.4466934 35.2151693,89.4679985 C42.8539353,91.478651 49.6439667,87.4573459 53.0390597,89.4679985 C57.2827327,91.478651 65.7700788,101.530999 81.0479199,99.5203461 C92.9305135,97.5096935 98.0226121,87.4573459 100.569434,85.4466934 C104.813107,82.4311721 114.149651,85.4466934 123.485423,79.4156509 Z" id="Path" fill="#96ACBC" opacity="0.9048"></path>
                <path d="M121.787799,78.409867 C131.973542,73.3837848 132.821967,58.3048973 127.729096,44.2313361 C121.787799,28.1472139 113.300453,29.1524486 106.510731,26.1366528 C101.41786,23.1208571 98.8718103,19.0998265 90.3844643,17.089357 C82.7455437,15.0787959 69.1653263,15.0787959 58.9803565,19.0998265 C47.0977629,23.1208571 26.7276687,35.1840402 23.332653,39.2050708 C19.0889027,44.2313361 14.8450751,61.3206931 23.332653,72.37855 C25.8789341,76.3992145 25.0301995,84.4418247 36.0639812,87.4573459 C43.7027472,89.4679985 49.644044,85.4466934 53.0390597,86.4524772 C57.2827327,88.4631298 64.9216533,99.5203461 80.1994944,96.5048248 C92.082088,94.4941723 96.3257611,83.4360408 98.8718103,82.4311721 C103.115483,80.4205196 111.602829,83.4360408 121.787799,78.409867 Z" id="Path" fill="#91A7B9" opacity="0.9524"></path>
                <path d="M119.24175,77.4049983 C128.578294,72.37855 130.275145,59.310132 125.183047,45.2365709 C119.24175,29.1524486 110.754404,31.1629182 103.963909,27.1418876 C98.8718103,25.1314181 97.1741866,21.1103875 89.535266,18.0945917 C82.7455437,16.0841222 68.3161281,16.0841222 58.9803565,20.1051528 C47.0975311,24.1261833 27.5761715,35.1839487 24.1811558,39.2049793 C19.9374055,43.2260098 15.6936551,59.3102236 24.1811558,71.3733152 C26.7274369,74.3890195 25.0299676,82.4311721 36.0637494,85.4466934 C43.7025154,87.4573459 49.6438122,83.4360408 52.1898615,84.4418247 C56.4335345,86.4524772 63.2240295,97.5096935 77.6526724,95.499041 C89.535266,93.4893036 93.7789391,82.4311721 95.4765628,81.4263035 C100.569434,78.409867 109.905206,82.4311721 119.24175,77.4049983 Z" id="Path" fill="#8BA3B5"></path>
            </g>
            <path d="M132.433397,37.9999549 C131.58582,37.9999549 131.58582,37.9999549 130.739015,37.9999549 C128.197057,28.9999218 120.573497,22.0000175 112.10159,22.0000175 C109.560403,22.0000175 107.019217,23 104.47803,23.9999641 C101.936072,15.0000221 94.3117414,9 85.8406052,9 C77.369469,9 70.5923287,15.0000221 68.0509878,23.9999641 C67.2037971,23.9999641 66.3566835,23.9999641 64.6623791,23.9999641 C55.3439751,23.9999641 48.5669119,31.9999329 47.7197212,41.9999393 C46.8726075,41.9999393 45.1783803,41.9999393 43.4840759,41.9999393 C32.4713675,41.9999393 24,51.9998547 24,64.9998722 C24,77.9997986 32.4713675,87.999714 43.4840759,87.999714 C43.4840759,87.999714 43.4840759,87.999714 44.3311896,87.999714 C46.0254939,96.9997471 53.6496707,103.999743 62.1210383,103.999743 C68.8981015,103.999743 73.9808603,99.999485 77.369469,94 C81.6050371,103.000133 89.2293681,108 98.5480807,108 C108.713598,108 117.184734,101 121.420303,90.9993609 C124.809066,92.9994896 129.044634,94.9996184 133.280202,94.9996184 C145.986906,94.9996184 157,82.9997563 157,66.9998188 C157,50.9998814 145.140101,37.9999549 132.433397,37.9999549 Z" id="Path" fill="#FFFFFF"></path>
            <path d="M133.433368,38.999947 C132.585791,38.999947 132.585791,38.999947 131.738985,38.999947 C129.197795,29.9999164 121.573455,22.9999229 113.102309,22.9999229 C110.560348,22.9999229 108.019159,23.999987 105.477969,24.9999601 C102.936009,16.0000204 95.3124399,10 86.8405226,10 C78.3693766,10 71.5923827,16.0000204 69.0509618,24.9999601 C68.2038472,24.9999601 67.3566555,24.9999601 65.6624263,24.9999601 C56.3439343,24.9999601 49.5668633,32.9999266 48.7197487,42.9999303 C47.8726341,42.9999303 46.1783277,42.9999303 44.4840985,42.9999303 C34.318492,41.9998662 25,51.9998699 25,64.9997928 C25,77.9998068 33.4713002,87.9997195 44.4840985,87.9997195 C44.4840985,87.9997195 44.4840985,87.9997195 45.3312131,87.9997195 C47.0254423,96.9997501 54.6497051,103.999744 63.1210054,103.999744 C69.8980764,103.999744 74.9809182,99.9994872 78.3693766,94.000013 C82.6049496,102.999224 90.2292895,108 99.5480129,108 C109.713542,108 118.184688,101 122.420261,90.9993655 C125.809028,92.9994937 130.044601,94.9996219 134.280174,94.9996219 C146.987664,94.9996219 158,82.9997631 158,66.99983 C156.305617,51.9998699 146.140087,38.999947 133.433368,38.999947 Z" id="Path" fill="#E9F2F5"></path>
            <g id="Group" opacity="0.0820850191" style="mix-blend-mode: multiply;">
                <path d="M124.519451,79.4906251 C132.163333,66.4098275 128.76631,41.2546027 123.669615,32.1987364 C116.874796,20.1242174 104.983282,19.1179388 99.0375253,15.0930992 C92.2419328,11.0682595 80.350419,1.00618793 71.8568563,1.00618793 C59.9654199,1.00618793 54.019663,6.03724206 44.6763418,9.05588553 C34.4836489,12.0745382 17.4958274,30.1862707 8.15250627,42.2607897 C-2.88956611,56.3477742 -0.341388245,77.4781594 2.20678807,82.5091861 C8.15250627,90.5588654 14.0982631,97.6024492 22.5922125,102.633384 C30.2367129,106.658499 37.0318415,106.658499 42.9775984,106.658499 C47.2245344,106.658499 52.3208422,109.676877 64.2123559,106.658499 C72.7063053,104.645942 76.1038696,103.639205 80.350419,102.633384 C87.995074,99.6150065 115.175898,95.589892 124.519451,79.4906251 Z" id="Path" fill="#F9FBFB" opacity="0.047619"></path>
                <path d="M122.820553,78.484438 C130.465208,65.4036405 127.067411,41.2546027 121.97149,32.1987364 C115.175898,20.1242174 104.13422,19.1180304 97.3386272,15.0931908 C91.3928703,11.0683512 79.5013566,1.00620625 71.0077165,1.77635684e-15 C59.9656519,1.77635684e-15 53.1705232,5.03105505 43.8272021,7.04347487 C34.4838809,12.0745382 17.4960594,31.1925494 9.00211,42.2608813 C-1.19056203,56.3477742 -0.341170179,76.4719724 3.05639954,81.5030907 C8.15273825,88.5464913 14.0984951,96.5966287 22.5923672,100.620827 C30.2369449,104.645942 37.0320735,103.640121 42.1283813,104.645942 C46.3753946,104.645942 51.4717024,107.664319 63.3632162,105.651762 C71.8570882,103.640121 75.2546525,102.633384 79.5013566,101.627564 C87.9958473,97.6024492 113.477,94.5840714 122.820553,78.484438 Z" id="Path" fill="#F4F6F8" opacity="0.095238"></path>
                <path d="M121.97149,78.484438 C129.616145,66.4099191 126.218349,42.2608813 121.122428,33.2049234 C114.326835,21.1304045 103.285157,20.1242174 96.4895648,17.1055648 C90.5438079,13.0807252 78.6522942,3.01864439 71.0080258,2.01243906 C59.9659612,2.01243906 54.0202043,7.04349319 44.6768831,10.0621641 C34.4841902,13.0807252 18.3457405,31.1925494 9.85179105,42.2608813 C-0.3408686,55.3415872 0.508524022,75.4657854 3.90608832,80.4968121 C8.15304757,87.5403043 14.0988044,95.589892 22.5926765,99.6150065 C30.2372542,103.640121 37.0323828,102.633384 42.1286906,102.633384 C46.3756266,102.633384 51.4720117,106.658499 63.3635255,103.640121 C71.8573976,101.627564 75.2549619,100.620827 79.5021299,99.6150065 C87.1467849,96.5966287 112.627937,93.5773348 121.97149,78.484438 Z" id="Path" fill="#EEF2F4" opacity="0.1429"></path>
                <path d="M120.272592,77.4781594 C127.916474,65.4036405 125.368513,42.2608813 120.272592,34.2111104 C113.477,22.1365915 102.435322,22.1365915 96.4895648,18.1117518 C90.5438079,15.0931908 79.5013566,4.02484056 71.8569336,3.01862607 C59.9654972,3.01862607 53.1703686,7.04346571 44.6764192,10.0620725 C34.4837263,13.0807252 18.3452765,31.1925494 10.7007762,42.2607897 C0.508075519,54.3354002 0.508083252,74.4595984 3.90564755,79.4906251 C9.00203267,86.5341173 14.0983405,93.5773348 22.5922899,97.6024492 C31.086162,101.627564 37.0319188,99.6150065 42.1282266,100.620827 C46.37524,101.627564 51.4715478,104.645942 63.3630615,101.627564 C71.8569336,99.6150065 76.103947,98.6082698 79.5013566,97.6024492 C87.1460116,94.5840714 110.929039,92.5715142 120.272592,77.4781594 Z" id="Path" fill="#E9EDF1" opacity="0.1905"></path>
                <path d="M118.573694,77.4781594 C126.218349,66.4099191 123.670388,43.2670683 118.573694,35.217389 C111.778875,23.1428701 100.736423,23.1428701 94.7906666,19.1180304 C88.8449098,16.0993778 78.6522942,4.02484972 70.1585767,4.02484972 C59.9658838,3.01863523 53.1707552,7.04348403 43.8274341,10.0620725 C33.6347412,13.0807252 18.3457405,31.1925494 10.7011628,41.2546027 C1.35788803,53.3291216 0.508500824,73.4533198 4.75546007,78.484438 C9.00241931,85.5279303 14.9481762,92.5715142 23.4420483,95.589892 C31.9359977,98.6082698 37.8817545,97.6024492 42.1286906,98.6082698 C46.3756266,99.6150065 51.4720117,102.633384 63.3634481,99.6150065 C71.8573976,97.6024492 76.1043336,95.589892 79.5021299,95.589892 C86.2969492,93.5773348 109.230914,90.558957 118.573694,77.4781594 Z" id="Path" fill="#E3E9ED" opacity="0.2381"></path>
                <path d="M116.874796,76.4719724 C124.519451,65.4036405 121.97149,43.2669767 116.874796,35.2172974 C110.079977,23.1427785 99.887361,23.1427785 93.0917685,20.1242174 C87.1460116,17.1055648 76.953396,5.03102757 69.3088957,5.03102757 C59.1162028,4.02481308 52.3210742,8.04965272 42.977753,11.0682595 C33.6345092,14.0869122 19.1948029,32.1987364 11.5503026,41.2546027 C3.05637634,52.3229346 1.35759419,71.4409458 5.60455343,76.4719724 C9.00211,83.5154647 14.9478669,90.5588654 23.4417389,94.5840714 C31.9356884,97.6024492 37.0320735,95.589892 42.1283813,96.5957126 C45.5259456,97.6024492 51.4717024,100.620827 62.5137671,97.6024492 C71.0077165,95.589892 75.2546525,93.5773348 78.6522942,93.5773348 C86.2969492,91.5647776 108.381078,89.5526784 116.874796,76.4719724 Z" id="Path" fill="#DEE5EA" opacity="0.2857"></path>
                <path d="M116.025733,76.4719724 C123.669615,65.4036405 121.121655,44.2732553 116.874796,36.223576 C110.079977,24.1490571 99.887361,24.1490571 93.9416042,21.1304045 C87.9958473,18.1117518 78.6522942,6.03726954 71.0077165,6.03726954 C61.6643953,5.03106421 54.019895,9.05588553 44.6765738,12.0745382 C33.6345092,15.0931908 19.1948029,32.1987364 11.5503026,41.2546027 C3.05637634,52.3229346 1.35759419,70.4347588 5.60455343,76.4719724 C9.85148174,82.5092777 14.9478669,89.55277 23.4417389,92.5715142 C31.9356884,95.589892 37.0320735,93.5773348 42.1283813,94.5840714 C46.3753173,95.589892 51.4717024,98.6082698 63.3631388,96.5966287 C71.8570882,94.5840714 76.1040243,92.5715142 79.5013566,91.5647776 C85.4471135,90.558957 106.68218,88.5464913 116.025733,76.4719724 Z" id="Path" fill="#D8E0E6" opacity="0.3333"></path>
                <path d="M114.326835,76.4719724 C121.97149,66.4098275 120.272592,45.2794423 115.175898,37.229763 C108.381078,25.1552441 98.1884629,25.1552441 92.242706,22.1365915 C87.1460116,19.1180304 76.953396,7.04346571 69.3088957,7.04346571 C59.9655745,6.03725122 52.3210742,10.0620725 42.977753,13.0807252 C33.6344319,15.0930992 19.1948029,32.1987364 12.3996743,41.2546027 C3.90573261,51.3167476 1.35756325,69.4284802 5.6045225,75.4657854 C9.85148174,81.5029991 14.9477895,88.5464913 22.5923672,91.5647776 C31.0862393,94.5840714 36.1826244,92.5715142 40.4295605,92.5715142 C45.5259456,93.5773348 50.6222534,96.5966287 62.5137671,94.5840714 C71.0076392,92.5715142 75.2545752,90.558957 78.6522942,89.5526784 C85.4471135,88.5464913 104.983282,87.5403043 114.326835,76.4719724 Z" id="Path" fill="#D3DCE3" opacity="0.381"></path>
                <path d="M112.627937,75.4657854 C120.272592,65.4037321 118.573694,45.2794423 113.477,37.229763 C106.68218,25.1552441 96.4895648,26.1615227 90.5438079,22.1366831 C85.4471135,19.1180304 76.1038696,7.04349319 68.4593693,7.04349319 C59.1160481,6.0372787 51.4715478,9.05588553 42.9775984,12.0745382 C33.6342772,15.0931908 19.1946482,33.2049234 13.2488914,41.2546027 C5.60439104,51.3167476 2.20682674,68.4222931 6.45377825,74.4595984 C10.7007762,80.4968121 14.9477122,86.5341173 23.4415843,89.55277 C31.9355337,92.5715142 37.0318415,89.55277 41.2788549,90.558957 C45.5257909,91.5647776 50.6220987,95.589892 62.5136124,92.5715142 C71.0075618,90.558957 75.2544979,88.5464913 78.6522942,87.5403043 C84.598051,87.5403043 104.133446,86.5341173 112.627937,75.4657854 Z" id="Path" fill="#CDD8DF" opacity="0.4286"></path>
                <path d="M110.929039,75.4657854 C118.573694,66.4099191 116.874796,46.2857209 112.627937,38.23595 C105.832345,26.1614311 95.639729,27.1677097 89.6939722,24.1490571 C84.598051,20.1242174 76.1040243,9.05588553 68.4594466,8.0496802 C59.9655745,7.04347487 51.4716251,10.0620725 42.977753,13.0807252 C33.6344319,16.0993778 20.0441746,33.2049234 13.249046,41.2546027 C6.45388651,50.3105606 2.20692727,66.4099191 6.45388651,73.4533198 C9.85148174,78.484438 14.9477895,85.5279303 23.4417389,87.5403043 C31.935611,89.55277 37.0319962,87.5403043 41.2789322,87.5403043 C44.6764965,89.55277 50.6222534,93.5773348 62.5136898,90.558957 C71.0076392,88.5464913 75.2545752,86.5341173 78.6522942,85.5279303 C84.598051,85.5279303 102.435322,85.5279303 110.929039,75.4657854 Z" id="Path" fill="#C8D3DC" opacity="0.4762"></path>
                <path d="M109.230141,74.4595984 C116.874796,65.4037321 115.175898,46.2857209 110.929039,38.2360416 C104.13422,26.1615227 94.7906666,27.1677097 88.8449098,24.1490571 C83.7482153,21.1304045 76.1041016,10.0621641 68.4595239,9.05588553 C59.9656519,8.04970768 51.4717024,11.0683512 42.9778303,14.0870038 C33.6345092,16.0993778 20.044252,33.2049234 14.0984951,40.2484157 C7.30336651,49.3043735 2.20701233,65.4037321 7.30336651,72.4471328 C10.7009308,77.478251 14.9478669,84.5216517 23.4418163,86.5341173 C31.9356884,88.5464913 37.0320735,85.5279303 40.4296378,86.5341173 C44.6765738,87.5403043 50.6223307,91.5647776 61.6643953,89.55277 C70.1583448,87.5403043 74.4052808,85.5279303 77.8032317,84.5216517 C83.7482153,84.5216517 100.736423,84.5216517 109.230141,74.4595984 Z" id="Path" fill="#C2CFD8" opacity="0.5238"></path>
                <path d="M108.381078,74.4595068 C116.02496,66.4098275 115.175898,47.2919079 110.079203,39.2422286 C103.284384,27.1677097 93.9408309,28.1738967 87.995074,25.1552441 C82.8991529,22.1365915 75.2544979,10.0620725 67.6099975,9.05588553 C59.1160481,8.04967104 50.622176,10.0620725 42.1282266,13.0807252 C33.6343545,17.1055648 20.0440973,33.2049234 14.9477122,40.2484157 C8.1525836,48.2980949 3.05622941,64.3974535 8.1525836,71.4409458 C11.5501479,76.4719724 15.7970839,82.5091861 24.2910334,84.5216517 C32.7849055,86.5341173 37.8812906,83.5154647 41.2788549,84.5216517 C44.6764192,85.5278387 50.622176,89.5526784 61.6642407,87.5403043 C70.1581901,85.5278387 75.2544979,82.5092777 77.8024585,82.5092777 C83.7482153,82.5092777 99.8865878,83.5154647 108.381078,74.4595068 Z" id="Path" fill="#BDCAD5" opacity="0.5714"></path>
                <path d="M106.68218,73.4534114 C114.326835,65.4037321 113.477773,47.2919079 109.230914,39.2422286 C103.285157,27.1677097 93.0917685,29.1800837 87.1467849,25.1552441 C82.0500905,23.1428701 75.2549619,11.0683512 67.6103842,10.0620725 C59.9658838,9.05588553 50.6225627,11.0683512 42.1286906,14.0869122 C32.7853694,17.1055648 20.8938557,34.211202 14.9480988,40.2484157 C9.00241931,48.2980949 3.05664699,63.3912665 8.15297024,70.4347588 C11.5505345,75.4657854 15.7975479,81.5030907 24.29142,83.5154647 C32.7853694,85.5279303 37.8816772,81.5030907 41.2792415,82.5092777 C44.6768058,83.5154647 50.6225627,87.5403043 61.6646273,85.5279303 C70.1585767,83.5154647 75.2548845,80.4968121 77.8032317,80.4968121 C82.8991529,81.5030907 98.1884629,82.5092777 106.68218,73.4534114 Z" id="Path" fill="#B7C6D1" opacity="0.619"></path>
                <path d="M104.983282,73.4534114 C112.627937,66.4099191 111.778875,48.2980949 107.531243,41.2546027 C101.585486,29.1800837 91.3928703,31.1925494 86.2969492,28.1738967 C81.2002547,24.1490571 74.4053581,12.0745382 67.6102295,11.0683512 C59.9656519,10.0620725 50.6223307,12.0745382 42.1284586,15.0931908 C32.7851374,18.1117518 20.893701,34.211202 15.7973159,40.2484157 C9.85155907,47.2919079 3.05644593,61.3788009 9.00218733,69.4284802 C12.3997516,73.4534114 15.7973159,80.4968121 24.2912653,81.5030907 C32.7851374,83.5154647 37.0320735,79.4906251 40.4296378,80.4968121 C43.8272021,81.5030907 49.7729589,86.5341173 61.6644727,83.5154647 C70.1583448,81.5030907 75.2547299,78.484438 77.8032317,78.484438 C82.8991529,79.4906251 96.4895648,81.5030907 104.983282,73.4534114 Z" id="Path" fill="#B2C2CE" opacity="0.6667"></path>
                <path d="M103.284384,72.4471328 C110.929039,65.4037321 110.079977,48.2980949 106.68218,41.2546027 C100.736423,29.1800837 91.3928703,31.1925494 85.4471135,28.1738967 C80.3511923,25.1552441 73.5559864,13.0807252 66.7608578,12.0745382 C59.9657292,10.0621641 50.622408,12.0745382 42.1284586,15.0931908 C32.7852148,18.1118434 20.893701,34.211202 16.646765,40.2484157 C10.7010081,46.2857209 3.90587181,60.3726139 9.00218733,68.4222931 C11.5503799,72.4471328 15.7973159,78.484438 24.2912653,80.4968121 C32.7852148,81.5030907 37.0321508,77.478251 40.4297151,78.484438 C43.8272794,79.4906251 49.7730363,84.5216517 61.6644727,82.5092777 C70.1584221,80.4968121 75.2547299,77.478251 77.8032317,77.478251 C82.0500905,78.484438 95.6405023,80.4968121 103.284384,72.4471328 Z" id="Path" fill="#ACBDCA" opacity="0.7143"></path>
                <path d="M101.586259,72.4471328 C109.230914,66.4099191 108.381078,49.3042819 104.983282,42.2608813 C99.0375253,30.1863624 89.6947455,32.1987364 83.7489886,29.1800837 C79.5021299,26.1615227 73.556141,14.0870038 66.7610124,12.0745382 C59.9658838,10.0621641 49.7731909,12.0745382 42.1286133,15.0931908 C32.7853694,19.1180304 20.8938557,34.211202 16.6469197,40.2484157 C12.3999063,45.2794423 3.90602646,59.3664268 9.85179105,67.4161061 C12.3999063,71.4409458 15.7974706,77.478251 24.29142,78.484438 C32.7853694,79.4906251 37.0323055,75.4657854 40.4298698,76.4719724 C43.8274341,77.478251 49.7731909,82.5092777 61.6646273,80.4968121 C71.0079485,78.484438 75.2548845,75.4657854 77.8032317,75.4657854 C82.0500905,76.4719724 93.9416042,78.484438 101.586259,72.4471328 Z" id="Path" fill="#A7B9C7" opacity="0.7619"></path>
                <path d="M100.736423,71.4409458 C108.381078,65.4036405 108.381078,49.3042819 104.13422,42.2607897 C98.1884629,30.1862707 88.8449098,32.1987364 83.7489886,30.1862707 C79.5021299,28.1738967 73.556141,15.0931908 66.7610124,14.0869122 C59.1165121,12.0745382 49.7731909,13.0807252 42.1286133,16.0993778 C32.7853694,19.1180304 21.7432274,35.217389 17.4962914,39.2422286 C13.2493554,45.2794423 4.7554214,58.3602398 9.85179105,66.4099191 C12.3999063,70.4347588 15.7974706,75.4657854 24.29142,76.4719724 C32.7853694,77.4781594 37.0323055,73.4533198 39.580498,74.4595984 C43.8274341,75.4657854 49.7731909,80.4968121 60.8152556,78.484438 C70.1585767,76.4719724 74.4055128,73.4533198 76.953396,73.4533198 C81.201028,74.4595984 92.242706,77.4781594 100.736423,71.4409458 Z" id="Path" fill="#A1B5C3" opacity="0.8095"></path>
                <path d="M99.0382986,71.4409458 C106.68218,66.4099191 106.68218,50.3105606 103.285157,43.2670683 C97.3394005,31.1925494 87.9958473,34.211202 82.8991529,31.1925494 C77.8032317,28.1738967 72.7067693,16.0993778 65.9116407,14.0869122 C59.1165121,12.0745382 49.7732683,14.0869122 41.2793188,16.0993778 C32.7854467,20.1242174 21.7433048,35.217389 18.3457405,39.2422286 C14.0988044,44.2732553 4.755491,56.3477742 10.7012401,65.4037321 C13.2494327,68.4222931 15.7975479,74.4595984 25.1408691,75.4657854 C33.6348185,76.4719724 37.8817545,71.4409458 40.4299471,72.4471328 C43.8275114,73.4534114 49.7732683,79.4906251 61.6647046,76.4719724 C71.0080258,74.4595984 75.2549619,70.4347588 77.8032317,71.4409458 C81.201028,73.4534114 91.3936436,76.4719724 99.0382986,71.4409458 Z" id="Path" fill="#9CB0C0" opacity="0.8571"></path>
                <path d="M97.3386272,70.4346672 C104.983282,65.4036405 104.983282,50.310469 101.585486,43.2670683 C95.639729,31.1925494 86.2969492,34.2111104 81.2002547,31.1925494 C76.953396,29.1800837 71.8570882,17.1055648 65.9113314,15.0930992 C59.1162028,13.0807252 48.9235099,14.0869122 41.2789322,17.1055648 C32.7850601,20.1242174 21.7429181,35.217389 19.1948029,39.2422286 C14.9477895,43.2670683 4.75512756,55.3415872 10.7008535,64.3974535 C13.249046,67.4161061 15.7972386,72.4471328 25.1405598,73.4533198 C33.6344319,74.4595068 37.0319962,69.4284802 39.5801887,70.4346672 C42.977753,71.4409458 48.9235099,77.4781594 60.8149463,75.4657854 C70.1582674,73.4533198 74.4052035,69.4284802 76.953396,70.4346672 C80.3511923,71.4409458 89.6939722,75.4657854 97.3386272,70.4346672 Z" id="Path" fill="#96ACBC" opacity="0.9048"></path>
                <path d="M95.6405023,70.4347588 C103.284384,66.4099191 103.284384,51.3167476 99.887361,44.2732553 C93.9416042,32.1987364 85.4471135,35.217389 79.5013566,32.1987364 C76.953396,30.1862707 71.8572429,18.1117518 65.0621143,16.0993778 C59.1163574,14.0869122 48.9236645,15.0931908 41.2790869,17.1055648 C32.7852148,20.1242174 22.5925219,35.217389 19.1949576,38.23595 C15.7973933,43.2670683 5.60468489,54.3354002 11.5504572,63.3912665 C13.2492007,66.4099191 16.646765,71.4409458 25.1407144,71.4409458 C34.4839583,71.4409458 37.8815226,66.4099191 39.5803434,67.4161061 C42.9779077,69.4284802 48.9236645,74.4595984 60.8151009,72.4471328 C70.1584221,71.4409458 74.4053581,67.4161061 76.1041789,68.4222931 C80.3511923,70.4347588 87.9958473,74.4595984 95.6405023,70.4347588 Z" id="Path" fill="#91A7B9" opacity="0.9524"></path>
                <path d="M93.9416042,69.4284802 C101.585486,65.4036405 102.435322,51.3167476 99.0375253,44.2732553 C93.0917685,33.2049234 84.598051,36.223576 79.5013566,33.2049234 C76.1041016,31.1925494 71.0077165,19.1180304 65.062037,16.0993778 C59.1162801,15.0931908 48.9235872,15.0931908 41.2790095,18.1117518 C32.7851374,21.1304045 22.5924445,36.223576 20.044252,39.2422286 C16.6466877,42.2607897 5.60460756,53.3291216 11.5503799,62.3850795 C14.0984951,64.3974535 16.6466877,69.4284802 25.1406371,70.4347588 C34.4838809,70.4347588 37.0320735,65.4036405 39.580266,66.4099191 C42.9778303,68.4222931 48.9235872,73.4533198 60.8150236,71.4409458 C70.1583448,69.4284802 74.4052808,65.4036405 76.1041016,66.4099191 C79.5013566,68.4222931 87.1460116,73.4533198 93.9416042,69.4284802 Z" id="Path" fill="#8BA3B5"></path>
            </g>
            <path d="M86.6475411,30.0467109 C84.9495811,30.0467109 82.4030276,30.0467109 80.7050676,31.0455771 C78.1585141,16.0622206 67.9712954,5.07443797 54.3885432,4.0755536 C41.6547709,3.07666013 30.6187268,12.0666649 26.3741361,26.0511553 C16.1870719,25.0521981 6.84891042,35.0411328 6,48.026666 C6,60.013333 13.6402865,71.0011338 24.6762534,72 C30.6187268,72 35.7122975,70.0022676 39.1079856,66.006712 C42.5036736,68.0044443 47.5971671,70.0022676 51.8418351,70.0022676 C60.3310166,71.0011338 67.9712954,67.0055781 73.0648661,60.013333 C75.6116515,65.0078458 79.8564741,68.0044443 84.9495811,68.0044443 C94.2879744,69.0034015 101.928408,60.013333 101.928408,50.0244893 C102.777001,39.0366885 95.9859344,30.0467109 86.6475411,30.0467109 Z" id="Path" fill="#FFFFFF"></path>
        </g>
    </g>
</svg>